<?xml version="1.0" encoding="UTF-8" standalone="no"?>
<!-- Created with Inkscape (http://www.inkscape.org/) -->

<svg
   xmlns:dc="http://purl.org/dc/elements/1.1/"
   xmlns:cc="http://creativecommons.org/ns#"
   xmlns:rdf="http://www.w3.org/1999/02/22-rdf-syntax-ns#"
   xmlns:svg="http://www.w3.org/2000/svg"
   xmlns="http://www.w3.org/2000/svg"
   xmlns:sodipodi="http://sodipodi.sourceforge.net/DTD/sodipodi-0.dtd"
   xmlns:inkscape="http://www.inkscape.org/namespaces/inkscape"
   width="1010.4"
   height="1010.4002"
   id="svg2"
   sodipodi:version="0.32"
   inkscape:version="0.48.4 r9939"
   version="1.0"
   sodipodi:docname="Ajax.svg"
   inkscape:output_extension="org.inkscape.output.svg.inkscape">
  <defs
     id="defs4">
    <inkscape:perspective
       sodipodi:type="inkscape:persp3d"
       inkscape:vp_x="0 : 300.5 : 1"
       inkscape:vp_y="0 : 1000 : 0"
       inkscape:vp_z="601 : 300.5 : 1"
       inkscape:persp3d-origin="300.5 : 200.33333 : 1"
       id="perspective3380" />
    <inkscape:perspective
       id="perspective3990"
       inkscape:persp3d-origin="375 : 250 : 1"
       inkscape:vp_z="750 : 375 : 1"
       inkscape:vp_y="0 : 1000 : 0"
       inkscape:vp_x="0 : 375 : 1"
       sodipodi:type="inkscape:persp3d" />
  </defs>
  <sodipodi:namedview
     id="base"
     pagecolor="#ffffff"
     bordercolor="#666666"
     borderopacity="1.0"
     gridtolerance="10000"
     guidetolerance="10"
     objecttolerance="10"
     inkscape:pageopacity="0.0"
     inkscape:pageshadow="2"
     inkscape:zoom="0.44192573"
     inkscape:cx="586.97119"
     inkscape:cy="418.60747"
     inkscape:document-units="px"
     inkscape:current-layer="layer1"
     width="601px"
     height="601px"
     inkscape:window-width="1280"
     inkscape:window-height="1001"
     inkscape:window-x="-8"
     inkscape:window-y="-8"
     showgrid="false"
     fit-margin-top="0.2"
     fit-margin-left="0.2"
     fit-margin-right="0.2"
     fit-margin-bottom="0.2"
     inkscape:window-maximized="1"
     showguides="true"
     inkscape:guide-bbox="true" />
  <metadata
     id="metadata7">
    <rdf:RDF>
      <cc:Work
         rdf:about="">
        <dc:format>image/svg+xml</dc:format>
        <dc:type
           rdf:resource="http://purl.org/dc/dcmitype/StillImage" />
        <dc:title></dc:title>
      </cc:Work>
    </rdf:RDF>
  </metadata>
  <g
     inkscape:label="Layer 1"
     inkscape:groupmode="layer"
     id="layer1"
     transform="translate(1515.529,3241.075)">
    <rect
       style="color:#000000;fill:#000000;fill-opacity:1;fill-rule:nonzero;stroke:none;stroke-width:0.8735441;marker:none;visibility:visible;display:inline;overflow:visible"
       id="rect3653"
       width="0"
       height="27.202072"
       x="578.73834"
       y="298.1684"
       rx="249.48199"
       ry="27.202072" />
    <path
       inkscape:connector-curvature="0"
       id="path3940"
       d="m -801.1513,-2230.8749 295.8223,-295.8221 -10e-5,-418.3556 -295.822,-295.8224 -418.3557,3e-4 -295.8222,295.8221 2e-4,418.3558 295.822,295.822 z"
       style="fill:#000000;fill-opacity:1;stroke:none" />
    <path
       inkscape:connector-curvature="0"
       id="path3942"
       d="m -803.2223,-2235.875 292.8933,-292.8932 -10e-5,-414.2135 -292.8931,-292.8935 -414.2135,3e-4 -292.8933,292.8932 2e-4,414.2136 292.8931,292.8932 z"
       style="fill:#ffffff;fill-opacity:1;stroke:none" />
    <path
       style="fill:#cd1e00;fill-opacity:1;stroke:none"
       d="m -1198.7963,-3190.875 -266.5327,266.5326 10e-5,376.9346 266.5325,266.5329 376.93437,-4e-4 266.53303,-266.5324 -2.9e-4,-376.9347 -266.53264,-266.5327 z"
       id="path3944"
       inkscape:connector-curvature="0" />
    <path
       d="m -776.35069,-2901.9725 75.64124,0 c 7.62841,1.1251 16.65231,3.383 24.27292,6.4877 13.55155,5.6488 25.68411,16.6563 33.58692,30.204 5.36264,12.1326 7.62061,24.2729 7.62061,37.8167 l 0,39.8002 c 0,1.129 0,1.129 0,1.129 0,13.5477 -2.25797,25.6802 -7.62061,37.8207 -7.90281,13.2614 -20.03537,24.5551 -33.58692,30.2 -7.62061,3.1047 -16.64451,5.3587 -24.27292,6.4877 l -29.07107,0 0,142.2491 -46.57017,0 0,-332.1951"
       id="path31"
       style="fill:#ffffff;fill-opacity:1;fill-rule:nonzero;stroke:none"
       inkscape:connector-curvature="0" />
    <path
       d="m -729.78052,-2758.875 0,-96.5273 27.94208,0 c 11.01138,2.2541 20.04317,11.0036 20.04317,23.4223 l 0,49.9611 c 0,12.1364 -9.03179,21.1642 -20.04317,23.1439 l -27.94208,0"
       id="path35"
       style="fill:#cd1e00;fill-opacity:1;fill-rule:nonzero;stroke:none"
       inkscape:connector-curvature="0" />
    <path
       d="m -1247.4112,-2612.1092 c 3.3874,-7.6245 5.6446,-15.532 5.6446,-23.4254 l 0,-48.8282 c 0,-0.8467 0,-0.8467 0,-1.9795 0,-12.4188 -2.2572,-23.4302 -7.9033,-33.5871 -6.7727,-15.5234 -20.0381,-27.6559 -35.5618,-34.4337 -9.0314,-3.1046 -18.91,-5.6409 -28.7897,-6.4916 -13.5469,0 -24.5536,-10.1568 -24.5536,-23.4261 0,-1.1251 0,-1.1251 0,-1.1251 l 0,-51.0861 c 1.1283,-10.1607 9.0314,-18.9103 18.9048,-21.1683 9.8797,-3.3907 19.7578,0 26.5356,7.9028 3.3822,3.1087 5.641,8.7496 5.641,13.2655 l 0,29.9139 46.5705,0 0,-34.4298 c -0.8467,-6.4955 -3.1054,-13.2654 -6.4881,-18.9143 -6.7742,-14.3983 -17.7809,-26.5348 -30.1996,-35.5626 -8.7495,-4.512 -18.6277,-7.6167 -28.7892,-8.7457 -2.2588,0 -4.516,0 -5.3626,0 -10.1616,0 -20.3216,2.258 -29.0711,4.2337 -15.5242,6.766 -27.6595,19.1887 -35.5623,34.716 -4.5156,6.7699 -6.4924,15.5233 -7.6167,24.2729 l 0,63.5009 c 1.1243,18.632 11.0025,35.5666 25.3976,46.5741 13.5473,9.8785 30.2044,16.6524 46.8525,16.6524 3.1038,1.125 5.3626,1.125 7.6209,2.254 7.9032,3.3908 13.5473,10.1646 15.5226,18.9142 l 0,56.727 c -1.1286,5.6448 -3.3873,11.006 -8.7495,15.5261 -6.7731,5.6445 -16.6528,6.4912 -25.6842,4.5113 -9.8781,-4.5113 -16.6523,-14.3926 -16.6523,-25.6822 l 0,-25.6803 -45.7239,0 0,26.8131 c 1.4163,12.1306 4.5174,23.4255 10.1647,34.4321 9.875,16.6525 25.6853,29.0711 43.1801,34.4307 6.7774,1.1285 12.4187,2.2571 19.193,2.2571 1.9752,0 4.2324,0 6.4912,0 11.2898,0 22.2968,-4.5112 32.458,-11.2901 11.8538,-6.4913 20.8852,-17.4979 26.5308,-31.0417"
       id="path39"
       style="fill:#ffffff;fill-opacity:1;fill-rule:nonzero;stroke:none"
       inkscape:connector-curvature="0" />
    <path
       d="m -1141.856,-2857.6642 -47.6991,0 0,-46.5702 144.2263,0 0,46.5702 -47.6991,0 0,287.8836 -48.8238,0 0,-287.8836"
       id="path43"
       style="fill:#ffffff;fill-opacity:1;fill-rule:nonzero;stroke:none"
       inkscape:connector-curvature="0" />
    <path
       d="m -850.85904,-2645.4131 0,-177.8174 c 0,-1.1251 0,-1.1251 0,-1.1251 0,-23.1478 -9.87858,-45.445 -25.40591,-60.9645 -9.03179,-7.9028 -18.91028,-12.1364 -30.19605,-14.3944 -5.36654,-1.1329 -9.87859,-2.258 -14.39834,-2.258 -1.12118,0 -2.25797,0 -2.25797,0 -1.12899,0 -1.12899,0 -2.25798,0 -4.23365,0 -9.87848,1.1251 -14.39043,2.258 -11.01148,2.258 -21.16826,6.4837 -29.91786,14.3944 -16.65241,15.5234 -25.68811,37.8206 -25.68811,60.9645 l 0,178.9425 c 0,0 0,0 0,1.1289 0,22.2964 9.0357,44.5933 25.68811,60.1159 8.7496,7.621 18.90638,13.2623 29.91786,15.5195 4.51195,0 10.15678,1.1329 14.39043,1.1329 1.12899,0 1.12899,0 2.25798,0 0,0 1.13679,0 2.25797,0 4.51975,0 9.0318,-1.1329 14.39834,-1.1329 11.28577,-2.2572 21.16426,-7.8985 30.19605,-15.5195 15.52733,-15.5226 25.40591,-37.8195 25.40591,-60.1159 0,-1.1289 0,-1.1289 0,-1.1289"
       id="path47"
       style="fill:#ffffff;fill-opacity:1;fill-rule:nonzero;stroke:none"
       inkscape:connector-curvature="0" />
    <path
       d="m -898.55429,-2634.4095 0,-200.9535 c -2.26578,-11.2897 -12.42656,-20.0432 -24.28082,-20.0432 -12.41866,0 -22.29725,8.7495 -24.55122,21.1682 l 0,198.6995 c 2.25397,12.4178 12.13256,21.1674 24.55122,21.1674 11.85426,0 22.01504,-7.621 24.28082,-20.0384"
       id="path51"
       style="fill:#cd1e00;fill-opacity:1;fill-rule:nonzero;stroke:none"
       inkscape:connector-curvature="0" />
  </g>
</svg>
