<?xml version="1.0" encoding="UTF-8" standalone="no"?>
<svg xmlns="http://www.w3.org/2000/svg" width="400.90268" height="400.90268">
  <path fill="#fff" d="M275.931712.75H125.304028c-4.738934 0-9.135295 1.69384-12.522967 5.08151L6.16456 112.44801C2.78641 115.83568.75 120.5651.75 124.97097v150.62769c0 4.72942 1.69383 9.12578 5.0815 12.52296l106.616504 106.6165c3.387671 3.37816 8.11709 5.41457 12.522966 5.41457h150.618168c4.738934 0 9.144811-1.69384 12.532483-5.07199L394.73812 288.45468c3.37816-3.38767 5.41457-8.1266 5.41457-12.52296V125.30403c0-4.73893-1.69384-9.13529-5.08151-12.52296L288.454678 6.16457C285.067007 2.78641 280.328072.75 275.931712.75"/>
  <path fill="none" stroke="#ed181f" stroke-miterlimit="10" stroke-width="1.5" d="M275.931712.75H125.304028c-4.738934 0-9.135295 1.69384-12.522967 5.08151L6.16456 112.44801C2.78641 115.83568.75 120.5651.75 124.97097v150.62769c0 4.72942 1.69383 9.12578 5.0815 12.52296l106.616504 106.6165c3.387671 3.37816 8.11709 5.41457 12.522966 5.41457h150.618168c4.738934 0 9.144811-1.69384 12.532483-5.07199L394.73812 288.45468c3.37816-3.38767 5.41457-8.1266 5.41457-12.52296V125.30403c0-4.73893-1.69384-9.13529-5.08151-12.52296L288.454678 6.16457C285.067007 2.78641 280.328072.75 275.931712.75z"/>
  <path fill="#ed171f" d="M337.87186 147.98811c2.03641 0 3.72073 1.69384 3.72073 3.72073v44.33473c0 2.37898-1.68432 4.07281-3.72073 4.07281h-21.31569v-52.12827h21.31569zm.67563 69.0476h-21.99132v50.10138h-19.64088v-136.4204h41.6322c12.52297 0 23.01904 10.50559 23.01904 23.02856v40.28094c0 12.52296-10.49607 23.00952-23.01904 23.00952m-21.99132-69.0476v52.12827-52.12827zm-277.21812 21.3252v-7.45097c0-18.27059 14.89243-33.16302 33.17254-33.16302 18.27058 0 33.172534 14.89243 33.172534 33.16302v12.18991H85.70918v-14.89244c0-7.45097-6.09019-13.20811-13.19859-13.20811-7.45098 0-13.20812 5.75714-13.20812 13.20811v13.1986c0 4.73894 2.37899 9.14481 6.43277 11.51428l23.36161 13.18908c10.153504 5.75714 16.586274 16.58627 16.586274 28.4336v10.49608c0 18.2801-14.901954 33.17254-33.172534 33.17254-18.28011 0-33.17254-14.89244-33.17254-33.17254v-18.95574h19.96442v21.65826c0 7.45098 5.75714 13.20812 13.20812 13.20812 7.1084 0 13.19859-5.75714 13.19859-13.20812v-16.24369c0-4.73894-2.71204-9.1353-6.76582-11.50477l-23.01904-13.19859c-10.1535-5.75714-16.58627-16.92885-16.58627-28.43361m234.567716 66.67814c0 18.2801-14.892433 33.17254-33.172538 33.17254-18.280105 0-33.172538-14.89244-33.172538-33.17254v-74.12911c0-18.27059 14.892433-33.16302 33.172538-33.16302 18.280105 0 33.172538 14.89243 33.172538 33.16302v74.12911zm-19.97394 2.70252c0 7.45098-5.757139 13.20812-13.198598 13.20812-7.108401 0-13.208113-5.75714-13.208113-13.20812v-79.53416c0-7.45097 6.099712-13.20811 13.208113-13.20811 7.441459 0 13.198598 5.75714 13.198598 13.20811v79.53416zM120.2425 130.71669h72.76833021v17.27142H166.604119v119.14898h-19.964424V147.98811H120.2425v-17.27142zm1.341746-121.16636L9.55318 121.5814v157.73608l112.031066 112.04059h157.72657L391.3514 279.31748V121.5814L279.310816 9.55033h-157.72657z"/>
</svg>