<?xml version="1.0" encoding="UTF-8" standalone="no"?>
<!-- Created with Inkscape (http://www.inkscape.org/) -->

<svg
   xmlns:dc="http://purl.org/dc/elements/1.1/"
   xmlns:cc="http://creativecommons.org/ns#"
   xmlns:rdf="http://www.w3.org/1999/02/22-rdf-syntax-ns#"
   xmlns:svg="http://www.w3.org/2000/svg"
   xmlns="http://www.w3.org/2000/svg"
   xmlns:sodipodi="http://sodipodi.sourceforge.net/DTD/sodipodi-0.dtd"
   xmlns:inkscape="http://www.inkscape.org/namespaces/inkscape"
   width="1010.4"
   height="1010.4002"
   id="svg2"
   sodipodi:version="0.32"
   inkscape:version="0.48.4 r9939"
   version="1.0"
   sodipodi:docname="Ajax.svg"
   inkscape:output_extension="org.inkscape.output.svg.inkscape">
  <defs
     id="defs4">
    <inkscape:perspective
       sodipodi:type="inkscape:persp3d"
       inkscape:vp_x="0 : 300.5 : 1"
       inkscape:vp_y="0 : 1000 : 0"
       inkscape:vp_z="601 : 300.5 : 1"
       inkscape:persp3d-origin="300.5 : 200.33333 : 1"
       id="perspective3380" />
    <inkscape:perspective
       id="perspective3990"
       inkscape:persp3d-origin="375 : 250 : 1"
       inkscape:vp_z="750 : 375 : 1"
       inkscape:vp_y="0 : 1000 : 0"
       inkscape:vp_x="0 : 375 : 1"
       sodipodi:type="inkscape:persp3d" />
  </defs>
  <sodipodi:namedview
     id="base"
     pagecolor="#ffffff"
     bordercolor="#666666"
     borderopacity="1.0"
     gridtolerance="10000"
     guidetolerance="10"
     objecttolerance="10"
     inkscape:pageopacity="0.0"
     inkscape:pageshadow="2"
     inkscape:zoom="0.31248868"
     inkscape:cx="509.17314"
     inkscape:cy="267.67167"
     inkscape:document-units="px"
     inkscape:current-layer="layer1"
     width="601px"
     height="601px"
     inkscape:window-width="1280"
     inkscape:window-height="1001"
     inkscape:window-x="-8"
     inkscape:window-y="-8"
     showgrid="false"
     fit-margin-top="0.2"
     fit-margin-left="0.2"
     fit-margin-right="0.2"
     fit-margin-bottom="0.2"
     inkscape:window-maximized="1"
     showguides="true"
     inkscape:guide-bbox="true" />
  <metadata
     id="metadata7">
    <rdf:RDF>
      <cc:Work
         rdf:about="">
        <dc:format>image/svg+xml</dc:format>
        <dc:type
           rdf:resource="http://purl.org/dc/dcmitype/StillImage" />
        <dc:title></dc:title>
      </cc:Work>
    </rdf:RDF>
  </metadata>
  <g
     inkscape:label="Layer 1"
     inkscape:groupmode="layer"
     id="layer1"
     transform="translate(1515.529,3241.075)">
    <rect
       style="color:#000000;fill:#000000;fill-opacity:1;fill-rule:nonzero;stroke:none;stroke-width:0.8735441;marker:none;visibility:visible;display:inline;overflow:visible"
       id="rect3653"
       width="0"
       height="27.202072"
       x="578.73834"
       y="298.1684"
       rx="249.48199"
       ry="27.202072" />
    <path
       inkscape:connector-curvature="0"
       id="path3940"
       d="m -1219.5067,-2230.8749 -295.8223,-295.8221 10e-5,-418.3556 295.822,-295.8224 418.3557,3e-4 295.8222,295.8221 -2e-4,418.3558 -295.822,295.822 z"
       style="fill:#000000;fill-opacity:1;stroke:none" />
    <path
       inkscape:connector-curvature="0"
       id="path3942"
       d="m -1217.4357,-2235.875 -292.8933,-292.8932 10e-5,-414.2135 292.8931,-292.8935 414.2135,3e-4 292.8933,292.8932 -2e-4,414.2136 -292.8931,292.8932 z"
       style="fill:#ffffff;fill-opacity:1;stroke:none" />
    <path
       style="fill:#d20000;fill-opacity:1;stroke:none"
       d="m -817.30547,-3201.875 272.97639,272.9763 -7e-5,386.0472 -272.97628,272.9766 -386.04697,-4e-4 -272.9767,-272.9761 3e-4,-386.0473 272.9763,-272.9764 z"
       id="path3944"
       inkscape:connector-curvature="0" />
    <path
       d="m -921.40853,-2904.9612 c -69.79863,0 -113.90477,75.8186 -113.90477,169.3425 0,93.4843 42.33563,169.3028 113.90477,169.3028 69.79874,0 113.94422,-75.8185 113.94422,-169.3028 0,-93.5239 -44.14548,-169.3425 -113.94422,-169.3425 z m 0.4722,279.1945 c -44.14548,0 -63.03132,-49.3782 -63.03132,-110.3241 0,-60.946 17.11523,-110.3244 63.03132,-110.3244 43.24059,0 63.03133,49.3784 63.03133,110.3244 0,60.9459 -20.69574,110.3241 -63.03133,110.3241"
       style="fill:#ffffff;fill-opacity:1;fill-rule:nonzero;stroke:none"
       id="path7320"
       inkscape:connector-curvature="0" />
    <path
       d="m -666.96193,-2895.0461 -113.47202,0 0,320.6251 49.53579,0 0,-113.4717 63.93623,0 c 44.14548,0 68.46093,-46.3883 68.46093,-103.5964 0,-57.2082 -25.22035,-103.557 -68.46093,-103.557 z m -12.59053,151.3223 -51.3457,0 0,-91.8715 51.3457,0 c 19.35794,0 29.70576,20.5776 29.70576,45.9161 0,25.3777 -9.44292,45.9554 -29.70576,45.9554"
       style="fill:#ffffff;fill-opacity:1;fill-rule:nonzero;stroke:none"
       id="path7322"
       inkscape:connector-curvature="0" />
    <path
       d="m -1420.8193,-2664.4823 c 5.7445,53.4701 26.1254,93.7204 99.9766,95.0188 51.3457,0.9065 89.6288,-41.5094 89.6288,-91.4384 l 0,-16.1709 -1.8099,-22.0728 c -1.0229,-12.7085 -9.0888,-26.9515 -19.8301,-38.283 -7.633,-8.1051 -20.6169,-16.9972 -36.4731,-22.0728 l -51.7785,-16.6824 c -8.3807,-2.6755 -15.1087,-5.8231 -20.2629,-9.8756 -3.1476,-2.4772 -8.8921,-8.9708 -9.4429,-13.535 l -0.9065,-7.2001 c 0.5918,-22.5842 14.4004,-41.4306 40.5258,-41.4306 23.0169,0 42.3749,15.8168 44.5783,38.7551 l 0.9065,9.4429 47.7259,0 -1.3377,-18.9251 c -3.4625,-48.1981 -37.3782,-85.0648 -88.7239,-86.4418 -67.1231,-1.8099 -87.8975,58.3099 -89.1566,86.009 0,0 -0.9065,9.915 -0.4721,9.915 -0.4344,0 0.4721,15.3054 0.4721,15.3054 0.3148,11.0167 1.1017,17.5087 4.9575,27.8958 9.7576,26.5976 26.2828,40.5258 53.1163,49.5358 l 53.5883,18.0202 c 13.889,4.6822 22.5843,12.7873 26.1254,27.0303 5.7051,22.6626 -11.7249,44.1452 -37.3781,46.8207 -17.1152,1.8099 -40.8799,-3.1476 -49.9686,-22.5056 -7.2002,-15.305 -5.3903,-14.4001 -8.5773,-29.7054 l -46.821,0 1.3377,12.5905"
       style="fill:#ffffff;fill-opacity:1;fill-rule:nonzero;stroke:none"
       id="path7324"
       inkscape:connector-curvature="0" />
    <path
       d="m -1222.6759,-2896.856 190.943,0 0,55.831 -72.0414,0 0,263.8891 -48.6309,0 0,-263.8891 -70.2707,0 0,-55.831"
       style="fill:#ffffff;fill-opacity:1;fill-rule:nonzero;stroke:none"
       id="path7326"
       inkscape:connector-curvature="0" />
  </g>
</svg>
