<?xml version="1.0" encoding="UTF-8"?>
<!-- Created with Inkscape (http://www.inkscape.org/) -->
<svg width="380" height="400" version="1.1" xml:space="preserve" xmlns="http://www.w3.org/2000/svg" xmlns:cc="http://creativecommons.org/ns#" xmlns:dc="http://purl.org/dc/elements/1.1/" xmlns:rdf="http://www.w3.org/1999/02/22-rdf-syntax-ns#" xmlns:xlink="http://www.w3.org/1999/xlink"><defs><linearGradient id="linearGradient129"><stop stop-color="#bdbdbd" offset="0"/><stop stop-color="#c9c9c9" offset=".14286"/><stop stop-color="#f3f3f3" offset=".32143"/><stop stop-color="#d6d6d6" offset=".53571"/><stop stop-color="#fff" offset=".75"/><stop stop-color="#e5e5e5" offset=".875"/><stop stop-color="#c7c7c7" offset="1"/></linearGradient><linearGradient id="linearGradient30"><stop stop-color="#d5a540" offset="0"/><stop stop-color="#ffcc56" offset=".14286"/><stop stop-color="#f4dd7b" offset=".32143"/><stop stop-color="#e5b147" offset=".5"/><stop stop-color="#fff7a3" offset=".75"/><stop stop-color="#ffc74d" offset=".9"/><stop stop-color="#ffe47b" offset="1"/></linearGradient><linearGradient id="linearGradient4053-4-1-3-7-0-8-9"><stop stop-color="#cc992d" offset="0"/><stop stop-color="#e1a832" offset=".14286"/><stop stop-color="#e5cf5c" offset=".32143"/><stop stop-color="#e5c547" offset=".5"/><stop stop-color="#ffffa3" offset=".75"/><stop stop-color="#ffd94d" offset=".875"/><stop stop-color="#ffdb4e" offset="1"/></linearGradient><filter id="filter23037-53" x="-.054101" y="-.053459" width="1.1082" height="1.1069" color-interpolation-filters="sRGB"><feGaussianBlur stdDeviation="0.96369705"/></filter><filter id="filter19711-1-7-0-2-3-9" x="-.39378" y="-.39825" width="1.7876" height="1.7965" color-interpolation-filters="sRGB"><feGaussianBlur stdDeviation="3.650625"/></filter><filter id="filter19711-2-9-7-1-2-2" x="-.39378" y="-.39825" width="1.7876" height="1.7965" color-interpolation-filters="sRGB"><feGaussianBlur stdDeviation="3.650625"/></filter><filter id="filter19711-2-0-8-7-7-1-25" x="-.39378" y="-.39825" width="1.7876" height="1.7965" color-interpolation-filters="sRGB"><feGaussianBlur stdDeviation="3.650625"/></filter><filter id="filter19711-2-5-0-0-6-8-9" x="-.39378" y="-.39825" width="1.7876" height="1.7965" color-interpolation-filters="sRGB"><feGaussianBlur stdDeviation="3.650625"/></filter><linearGradient id="linearGradient48" x1="162.03" x2="323.21" y1="92.014" y2="92.014" gradientTransform="matrix(-1,0,0,1,432.62,-45.75)" gradientUnits="userSpaceOnUse" xlink:href="#linearGradient30"/><linearGradient id="linearGradient49" x1="682.87" x2="886.27" y1="-132.99" y2="-132.99" gradientTransform="matrix(-.08137 -.032426 -.036124 .09065 341.42 417.41)" gradientUnits="userSpaceOnUse" xlink:href="#linearGradient30"/><linearGradient id="linearGradient50" x1="683.37" x2="885.77" y1="-132.99" y2="-132.99" gradientTransform="matrix(-.08137 -.032426 -.036124 .09065 341.42 417.41)" gradientUnits="userSpaceOnUse" xlink:href="#linearGradient4053-4-1-3-7-0-8-9"/><linearGradient id="linearGradient51" x1="682.87" x2="886.27" y1="-132.99" y2="-132.99" gradientTransform="matrix(-.084146 0 0 .10261 346.86 408.64)" gradientUnits="userSpaceOnUse" xlink:href="#linearGradient30"/><linearGradient id="linearGradient53" x1="683.37" x2="885.77" y1="-132.99" y2="-132.99" gradientTransform="matrix(-.084146 0 0 .10261 346.86 408.64)" gradientUnits="userSpaceOnUse" xlink:href="#linearGradient4053-4-1-3-7-0-8-9"/><linearGradient id="linearGradient54" x1="682.87" x2="886.27" y1="-132.99" y2="-132.99" gradientTransform="matrix(-.084146 0 0 .10261 362.41 397.25)" gradientUnits="userSpaceOnUse" xlink:href="#linearGradient30"/><linearGradient id="linearGradient55" x1="683.37" x2="885.77" y1="-132.99" y2="-132.99" gradientTransform="matrix(-.084146 0 0 .10261 362.41 397.25)" gradientUnits="userSpaceOnUse" xlink:href="#linearGradient4053-4-1-3-7-0-8-9"/><linearGradient id="linearGradient56" x1="682.87" x2="886.27" y1="-132.99" y2="-132.99" gradientTransform="matrix(-.084146 0 0 .10261 359.79 411.75)" gradientUnits="userSpaceOnUse" xlink:href="#linearGradient30"/><linearGradient id="linearGradient57" x1="683.37" x2="885.77" y1="-132.99" y2="-132.99" gradientTransform="matrix(-.084146 0 0 .10261 359.79 411.75)" gradientUnits="userSpaceOnUse" xlink:href="#linearGradient4053-4-1-3-7-0-8-9"/><linearGradient id="linearGradient59" x1="401.11" x2="455.41" y1="398.44" y2="398.44" gradientTransform="matrix(1.0225 0 0 1.0225 -177.14 -278)" gradientUnits="userSpaceOnUse"><stop stop-color="#bdbdbd" offset="0"/><stop stop-color="#c9c9c9" offset=".14286"/><stop stop-color="#f3f3f3" offset=".32143"/><stop stop-color="#d6d6d6" offset=".53571"/><stop stop-color="#fff" offset=".75"/><stop stop-color="#e5e5e5" offset=".875"/><stop stop-color="#c7c7c7" offset="1"/></linearGradient><linearGradient id="linearGradient61" x1="22.701" x2="131.4" y1="267.55" y2="267.55" gradientTransform="matrix(2.0981,0,0,2.0995,102.77,6.9333)" gradientUnits="userSpaceOnUse" spreadMethod="reflect" xlink:href="#linearGradient30"/><linearGradient id="linearGradient86" x1="75.853" x2="149.15" y1="220.05" y2="220.05" gradientUnits="userSpaceOnUse" xlink:href="#linearGradient129"/><linearGradient id="linearGradient88" x1="97.598" x2="127.4" y1="231.78" y2="231.78" gradientUnits="userSpaceOnUse" xlink:href="#linearGradient129"/></defs><metadata><rdf:RDF><cc:Work rdf:about=""><dc:format>image/svg+xml</dc:format><dc:type rdf:resource="http://purl.org/dc/dcmitype/StillImage"/></cc:Work></rdf:RDF></metadata><g><path d="m109.91 63.39c11.598-2.1616 9.1905-8.9913 5.7438-16.168 10.93-0.85655 9.05-6.9536 7.871-12.764 14.148 1.543 10.907-5.6087 9.7857-11.7 6.6637 2.7614 11.542 1.5953 12.551-8.0838 10.786 5.0997 12.683-0.66562 13.402-7.871 5.1638 4.332 10.265 7.6107 14.466-4.2546 6.8902 8.4602 11.391 5.3734 14.891-2.5528 4.6442 8.8235 9.9036 12.571 16.806 2.7655 3.164 12.396 9.1795 5.5452 14.466 3.6164 2.7805 17.339 9.5325 6.8773 14.891 6.1692-1.7425 9.5396 2.0971 12.939 11.7 9.9984-3.4272 10.799 2.5907 11.657 9.7857 11.275 0.5614 4.944-2.7599 12.476 8.9347 9.9984-4.9193 7.5315-4.9 14.303 4.8928 19.571-4.5863 2.881-9.1681 5.7631-1.0637 11.913l-77.647 17.231-79.349-15.104c2.9604-4.4355 3.389-9.0397-2.1274-14.04z" fill="url(#linearGradient48)"/><g><g transform="translate(-509.59)" stroke-width="1.0163"><path d="m560.44 62.771c0.031 0.13539 0.43056 2.3216 0.88867 4.8594 1.065 5.8995 2.4926 13.299 5.0215 26.021 3.8062 19.15 5.1186 26.111 6.6816 35.449 2.4247 14.486 3.8447 26.207 4.5332 37.434 1.2644 20.617-0.14521 38.674-4.3242 55.391-1.078 4.3116-2.8954 13.633-3.7676 19.328-2.9652 19.362-1.8566 33.943 3.4941 45.971 1.5862 3.5654 3.2213 6.3216 5.666 9.5508 2.5828 3.4116 5.1579 6.0692 8.5684 8.8418 11.223 9.1248 28.287 15.146 49.574 17.496 5.053 0.55775 18.877 2.6416 24.238 3.6523 19.157 3.6117 30.069 8.7772 36.109 17.025 0.69494 0.94892 1.504 2.1759 1.7988 2.7285l-2e-3 2e-3c0.2947 0.55261 0.56682 1.0039 0.60352 1.0039 4e-3 0 0.0554-0.0975 0.0644-0.10742 9e-3 0.01 0.0604 0.10742 0.0644 0.10742 0.0367 0 0.30882-0.4513 0.60352-1.0039l-2e-3 -2e-3c0.29481-0.55257 1.1039-1.7796 1.7988-2.7285 6.04-8.2482 16.952-13.414 36.109-17.025 5.3611-1.0107 19.185-3.0946 24.238-3.6523 21.287-2.3498 38.351-8.3713 49.574-17.496 3.4104-2.7726 5.9856-5.4302 8.5684-8.8418 2.4447-3.2292 4.0798-5.9854 5.666-9.5508 5.3507-12.028 6.4594-26.608 3.4941-45.971-0.87213-5.6952-2.6895-15.017-3.7676-19.328-4.179-16.716-5.5886-34.773-4.3242-55.391 0.68852-11.227 2.1085-22.948 4.5332-37.434 1.5631-9.3378 2.8754-16.299 6.6816-35.449 2.5288-12.723 3.9565-20.122 5.0215-26.021 0.45812-2.5378 0.85767-4.724 0.88867-4.8594 0.0438-0.19052-0.56818 0.03432-2.7129 0.99609-12.235 5.4867-24.774 8.5279-40.402 9.3585-3.7253 0.19799-15.834 0.1083-19.703-0.14648-4.4871-0.29543-8.5241-0.61926-12.367-0.99219-6.9069-0.67025-29.061-3.3298-32.67-3.9219-3.4901-0.57265-4.835-0.67768-8.6953-0.67578-5.0402 3e-3 -7.6411 0.38579-11.6 1.707-3.163 1.0557-5.5699 2.2602-8.8359 4.4238l-2.1621 1.4316-2.1621-1.4316c-3.266-2.1636-5.673-3.3681-8.8359-4.4238-3.9585-1.3212-6.5594-1.704-11.6-1.707-3.8604-0.0019-5.2052 0.10313-8.6953 0.67578-3.609 0.59205-25.763 3.2516-32.67 3.9219-3.8431 0.37293-7.8801 0.69675-12.367 0.99219-3.8692 0.25479-15.978 0.34448-19.703 0.14648-15.629-0.83063-28.168-3.8718-40.402-9.3585-2.1447-0.96177-2.7567-1.1866-2.7129-0.99609z" fill="#f0641d"/><path d="m838.5 62.76c-0.28311 0.05238-0.98834 0.34044-2.4766 1.0078-12.235 5.4867-24.774 8.3276-40.402 9.1582-3.7253 0.19799-15.834 0.1083-19.703-0.14648-4.4871-0.29543-8.5241-0.61926-12.367-0.99219-6.9069-0.67025-29.061-3.3298-32.67-3.9219-3.4901-0.57265-4.835-0.67768-8.6953-0.67578-5.0402 3e-3 -7.6411 0.38579-11.6 1.707-3.163 1.0557-5.5699 2.2602-8.8359 4.4238l-1.8418 1.2188c-0.0842 0.06251-0.23631 0.15005-0.32031 0.21289-0.084-0.06284-0.23615-0.15038-0.32031-0.21289l-1.8418-1.2188c-3.266-2.1636-5.673-3.3681-8.8359-4.4238-3.9585-1.3212-6.5594-1.704-11.6-1.707-3.8604-0.0019-5.2052 0.10313-8.6953 0.67578-3.609 0.59205-25.763 3.2516-32.67 3.9219-3.8431 0.37293-7.8801 0.69675-12.367 0.99219-3.8692 0.25479-15.978 0.34448-19.703 0.14648-15.629-0.83063-28.168-3.6715-40.402-9.1582-1.9843-0.88983-2.578-1.1034-2.6328-0.98633l4e-3 0.0039 2.9609 3.041c21.956 12.207 59.186 11.806 103.46 4.7266 12.441-1.7722 23.576-1.6196 32.639 6.4199 9.0627-8.0395 20.197-8.1922 32.639-6.4199 44.278 7.079 81.508 7.4803 103.46-4.7266l2.9609-3.041 4e-3 -0.0039c-0.0137-0.02928-0.0619-0.03894-0.15625-0.02148z" fill="#ffb483"/><path d="m560.44 62.771c0.031 0.13539 0.43056 2.3216 0.88867 4.8594 1.065 5.8995 2.4926 13.299 5.0215 26.021 3.8062 19.15 5.1186 26.111 6.6816 35.449 2.4247 14.486 3.8447 26.207 4.5332 37.434 0.8494 13.85 0.4622 26.526-1.1309 38.436-0.28455 2.8243-0.63553 5.5469-1.1289 8.0469-0.19641 0.70661-0.34946 1.3907-0.53907 2.0938-0.4615 2.2959-0.96424 4.5698-1.5254 6.8144-1.078 4.3116-2.8954 13.633-3.7676 19.328-0.73541 4.802-1.2175 9.3069-1.4492 13.555-3e-3 0.0744-7e-3 0.1503-0.01 0.22461-0.0475 0.90456-0.04 1.7535-0.0645 2.6348-0.0995 6.1722 0.31382 12.043 1.3144 17.557 0.13696 0.69022 0.24837 1.3999 0.40625 2.0742 0.0415 0.1955 0.0878 0.38748 0.13086 0.58203 0.80429 3.2879 1.8544 6.3955 3.166 9.3438 1.5862 3.5654 3.2213 6.3216 5.666 9.5508 2.5828 3.4116 5.1579 6.0692 8.5684 8.8418 11.223 9.1248 28.287 15.146 49.574 17.496 5.053 0.55775 18.877 2.6416 24.238 3.6523 19.157 3.6117 30.069 8.7772 36.109 17.025 0.69494 0.94892 1.504 2.1759 1.7988 2.7285l-2e-3 2e-3c0.2947 0.55261 0.56682 1.0039 0.60352 1.0039 4e-3 0 0.0554-0.0975 0.0644-0.10742v-4.5664c-18.367-23.037-51.408-17.541-77.723-25.189-62.2-14.011-54.514-58.709-43.848-104.72 8.195-34.177-1.6643-89.884-14.533-147.12l-2.7793-3.0215c-0.0833-0.0088-0.2765-0.08049-0.26563-0.0332z" fill="#f38851"/><path d="m838.74 62.771c-0.031 0.13539-0.43056 2.3216-0.88867 4.8594-1.065 5.8995-2.4926 13.299-5.0215 26.021-3.8062 19.15-5.1186 26.111-6.6816 35.449-2.4247 14.486-3.8447 26.207-4.5332 37.434-0.8494 13.85-0.4622 26.526 1.1309 38.436 0.28455 2.8243 0.63553 5.5469 1.1289 8.0469 0.19641 0.70661 0.34946 1.3907 0.53907 2.0938 0.4615 2.2959 0.96424 4.5698 1.5254 6.8144 1.078 4.3116 2.8954 13.633 3.7676 19.328 0.73541 4.802 1.2175 9.3069 1.4492 13.555 3e-3 0.0744 7e-3 0.1503 0.01 0.22461 0.0475 0.90456 0.04 1.7535 0.0645 2.6348 0.0995 6.1722-0.31382 12.043-1.3144 17.557-0.13696 0.69022-0.24837 1.3999-0.40625 2.0742-0.0415 0.1955-0.0878 0.38748-0.13086 0.58203-0.80429 3.2879-1.8544 6.3955-3.166 9.3438-1.5862 3.5654-3.2213 6.3216-5.666 9.5508-2.5828 3.4116-5.1579 6.0692-8.5684 8.8418-11.223 9.1248-28.287 15.146-49.574 17.496-5.053 0.55775-18.877 2.6416-24.238 3.6523-19.157 3.6117-30.069 8.7772-36.109 17.025-0.69494 0.94892-1.504 2.1759-1.7988 2.7285l2e-3 2e-3c-0.2947 0.55261-0.56682 1.0039-0.60352 1.0039-4e-3 0-0.0554-0.0975-0.0644-0.10742v-4.5664c18.367-23.037 51.408-17.541 77.723-25.189 62.2-14.011 54.514-58.709 43.848-104.72-8.195-34.177 1.6643-89.884 14.533-147.12l2.7793-3.0215c0.0833-0.0088 0.2765-0.08049 0.26563-0.0332z" fill="#c05017"/><path d="m577.33 78.689s3.3557 18.286 5.123 27.412c3.2976 16.998 4.4329 23.178 5.7871 31.467 2.1007 12.858 3.3312 23.263 3.9277 33.229 1.0955 18.301-0.12538 34.328-3.7461 49.166-0.93395 3.8286-2.5081 12.103-3.2637 17.158-2.5691 17.187-1.6085 30.13 3.0274 40.807 1.3742 3.1648 2.7901 5.6101 4.9082 8.4766 2.2377 3.0282 4.4691 5.3884 7.4238 7.8496 18.116 14.691 42.059 14.727 63.949 18.771 16.598 3.2057 27.806 7.7917 33.039 15.113 1.5986 2.2369 1.9753 3.3144 2.082 3.3144s0.48346-1.0775 2.082-3.3144c5.233-7.3215 16.441-11.908 33.039-15.113 21.89-4.0449 45.833-4.0805 63.949-18.771 2.9547-2.4612 5.1862-4.8214 7.4238-7.8496 2.1181-2.8664 3.534-5.3118 4.9082-8.4766 4.6359-10.677 5.5965-23.619 3.0274-40.807-0.75561-5.0554-2.3297-13.33-3.2637-17.158-3.6207-14.838-4.8416-30.865-3.7461-49.166 0.59652-9.9653 1.827-20.371 3.9277-33.229 1.3542-8.2888 2.4895-14.468 5.7871-31.467 1.7673-9.1262 5.123-27.412 5.123-27.412-4e-5 0-11.089 7.4575-39.701 9.0156-3.2275 0.17576-13.718 0.09535-17.07-0.13086-3.8875-0.26224-7.3856-0.54983-10.715-0.88086-5.9841-0.59496-24.534-2.9549-27.66-3.4805-3.0237-0.50831-4.1886-0.60131-7.5332-0.59961-4.3669 3e-3 -6.619 0.34087-10.049 1.5137-2.7404 0.93711-4.8267 2.007-7.6562 3.9277l-1.873 1.2715-1.873-1.2715c-2.8296-1.9207-4.9159-2.9906-7.6562-3.9277-3.4298-1.1728-5.6819-1.5107-10.049-1.5137-3.3446-0.0017-4.5095 0.0913-7.5332 0.59961-3.1266 0.52555-21.676 2.8855-27.66 3.4805-3.3292 0.33103-6.8273 0.61862-10.715 0.88086-3.3528 0.22621-13.843 0.30661-17.07 0.13086-28.612-1.5582-39.701-9.0156-39.701-9.0156z" fill="#377ac8"/><path d="m574.8 75.82c9.4613 50.906 21.08 104.17 13.023 135.94-12.937 47.766-9.2541 85.007 35.85 96.023 13.159 3.7764 27.361 4.7618 40.795 7.2441 7.9293 1.5315 30.084 5.881 35.121 18.848v-4.3926c-16.171-20.819-47.601-16.244-70.77-23.156-54.766-12.657-48.001-53.053-38.609-94.633 7.2158-30.887-1.462-81.235-12.793-132.96z" fill="#db5800"/><path d="m824.38 75.819c-9.4613 50.906-21.08 104.17-13.023 135.94 12.937 47.766 9.2541 85.007-35.85 96.023-13.159 3.7764-27.361 4.7618-40.795 7.2441-7.9293 1.5315-30.084 5.881-35.121 18.848v-4.3926c16.171-20.819 47.601-16.244 70.77-23.156 54.766-12.657 48.001-53.053 38.609-94.633-7.2158-30.887 1.462-81.235 12.793-132.96z" fill="#ff934c"/></g></g><g><path d="m192.5 106.48-21.417 15.609v33.223l-47.034 34.733v41.308h-8.359v5.5872h2.2227v41.918h-8.7962v11.467h166.77v-11.467h-8.7946v-41.918h2.2229v-5.5872h-8.3606v-41.308l-47.034-34.733v-33.223z" fill-opacity=".2" filter="url(#filter23037-53)" stop-color="#000000" style="-inkscape-stroke:none;font-variation-settings:normal"/><path d="m114.42 159.82c-4.825-5.1772-5.5491-11.748-1.889-17.141 2.0166-2.9717 2.1958-3.7696 1.0584-4.7135-1.1009-0.91371-1.5724-0.38123-2.4071 2.7186-0.5709 2.1202-1.7166 4.7409-2.546 5.8239-1.4838 1.9376-1.5398 1.9291-3.4996-0.5309-2.8053-3.521-4.3508-8.6626-3.6529-12.152l0.5946-2.973-3.7001 3.0499c-2.035 1.6774-4.0165 2.7181-4.4032 2.3125-0.742-0.77809-1.1547-4.8258-0.9777-9.5874 0.1279-3.4394 5.924-9.65 9.006-9.65 3.6318 0 2.2138-1.3921-4.8465-4.758-3.7587-1.7919-7.5725-4.3852-8.4752-5.7628-1.5893-2.4256-1.5591-2.536 0.9553-3.492 4.2301-1.6082 10.69-1.1485 14.235 1.0133 2.7384 1.6696 3.6008 1.7907 5.3151 0.74626 1.7741-1.0809 2.313-0.92123 4.0507 1.1999 1.4307 1.7463 2.2201 2.0976 2.758 1.2271 1.0707-1.7323 7.9827 1.2485 10.725 4.6254l2.1181 2.6077 0.6997-2.2045c0.9904-3.1205 4.1902-4.693 5.3462-2.6274 0.7809 1.3953 1.3507 1.2747 4.6929-0.99339 2.3749-1.6116 5.1607-2.5754 7.4146-2.5651 3.86 0.0176 11.663 3.8226 11.246 5.4836-0.2955 1.1754-3.4583 3.0766-7.5396 4.5321l-2.9045 1.0359 2.5613 2.716c2.2923 2.4307 4.7272 8.5845 4.7421 11.985 0.01 1.6297-4.1897 0.63827-8.7916-2.0769-3.2545-1.9202-3.3467-1.9228-3.0298-0.0863 0.2459 1.4241-0.3554 1.9727-2.423 2.2106-3.2715 0.37642-3.2406 0.21676-0.8469 4.3764 1.0467 1.8189 2.2205 4.8289 2.6084 6.6888l0.7052 3.3816-3.8246-0.71749c-2.1035-0.39463-5.0342-1.5789-6.5127-2.6316-4.3927-3.1279-5.045-2.3713-2.8758 3.3359 2.4305 6.3949 2.7358 15.75 0.514 15.75-0.8154 0-3.4443-1.9125-5.8422-4.25l-4.3596-4.25-3.8158 8.6855z" fill-opacity=".2" filter="url(#filter23037-53)"/><g transform="translate(-171.48 -268.87)"><path d="m285.98 371.51c10.994 7.0164 16.193 13.505 16.219 19.521-13.682-0.72717-26.054-7.1683-16.219-19.521z" fill="#11854a" stroke-opacity="0"/><path d="m285.83 371.6 0.77142 5.8541-2.9332 4.0662 3.1644-2.9862 1.3084 2.1758-1.647 4.7144 2.3228-3.7894 1.6593 2.1631-0.15706 4.012 1.215-3.1472 2.3612 2.1376 1.6667 2.6722-0.6378-2.1537 7.2844 3.7656c0.0621-7.1751-6.5272-13.531-16.379-19.484z" fill-opacity=".2" stroke-opacity="0"/><path d="m292.09 384.63 4.5296 0.29443-4.856-0.62649z" fill="#fff" fill-opacity=".24528" stroke-opacity="0"/><path d="m295.14 387.17 4.5296 0.29445-4.856-0.62649z" fill="#fff" fill-opacity=".24528" stroke-opacity="0"/><path d="m294.83 377.9c10.587 6.0241 16.553 12.583 18.392 19.619-10.755 1.8715-22.229-3.2051-18.392-19.619z" fill="#11854a" stroke-opacity="0"/><path d="m294.74 378.02 2.3646 6.6979-1.0287 5.3426 1.5334-4.1246 1.6655 2.286 0.15764 5.8452 0.64246-4.8971 1.9319 2.2014 1.0925 4.7267-0.0163-3.925 2.4646 2.0319 2.0916 2.7958-1.1425-2.3937 6.7479 2.9576c-2.1222-8.4098-9.1183-14.537-18.505-19.545z" fill-opacity=".2" stroke-opacity="0"/><path d="m298.29 385.78 3.5768-0.55667-3.9286 0.23307z" fill="#fff" fill-opacity=".24528" stroke-opacity="0"/><path d="m300.99 388.95 3.5768-0.55677-3.9286 0.23307z" fill="#fff" fill-opacity=".24528" stroke-opacity="0"/><path d="m303.51 392.03 3.5768-0.55678-3.9286 0.23308z" fill="#fff" fill-opacity=".24528" stroke-opacity="0"/><path d="m306.62 394.4 3.5768-0.55667-3.9286 0.23308z" fill="#fff" fill-opacity=".24528" stroke-opacity="0"/><path d="m281.15 388.25c1.4256 12.097-0.31956 20.79-4.8952 26.443-7.8834-7.5515-10.598-19.802 4.8952-26.443z" fill="#11854a" stroke-opacity="0"/><path d="m280.99 388.25-3.9919 5.8752-4.9123 2.339 4.2306-1.2105-0.85349 2.6966-4.6137 3.5924 4.3246-2.386-0.62742 2.8608-3.1587 3.6821 3.1512-2.3402-0.17512 3.1894-1.0114 3.3419 1.2503-2.3392 1.6188 7.1875c5.5142-6.6949 6.3007-15.961 4.7686-26.489z" fill-opacity=".2" stroke-opacity="0"/><path d="m276.85 395.71 2.5689 2.5503-2.5168-3.0255z" fill="#fff" fill-opacity=".24528" stroke-opacity="0"/><path d="m275.9 399.76 2.5689 2.5503-2.5168-3.0255z" fill="#fff" fill-opacity=".24528" stroke-opacity="0"/><path d="m274.91 403.61 2.5689 2.5503-2.5168-3.0255z" fill="#fff" fill-opacity=".24528" stroke-opacity="0"/><path d="m274.85 407.53 2.5689 2.5504-2.5168-3.0255z" fill="#fff" fill-opacity=".24528" stroke-opacity="0"/><path d="m281.16 388.29c9.9452 7.0337 15.239 14.146 16.379 21.329-10.887 0.80745-21.808-5.3702-16.379-21.329z" fill="#11854a" stroke-opacity="0"/><path d="m281.05 388.4 1.6962 6.8976-1.5479 5.2159 1.9306-3.9542 1.4332 2.4384-0.4165 5.8325 1.1197-4.8105 1.7066 2.3802 0.62355 4.8111 0.3688-3.9077 2.2534 2.2639 1.8073 2.9875-0.90218-2.4942 6.4252 3.6053c-1.287-8.5774-7.6483-15.361-16.498-21.266z" fill-opacity=".2" stroke-opacity="0"/><path d="m283.83 396.47 3.6142-0.20312-3.9325-0.15344z" fill="#fff" fill-opacity=".24528" stroke-opacity="0"/><path d="m286.21 399.89 3.6142-0.20322-3.9325-0.15344z" fill="#fff" fill-opacity=".24528" stroke-opacity="0"/><path d="m288.41 403.2 3.6142-0.20322-3.9325-0.15344z" fill="#fff" fill-opacity=".24528" stroke-opacity="0"/><path d="m291.28 405.87 3.6142-0.20312-3.9325-0.15343z" fill="#fff" fill-opacity=".24528" stroke-opacity="0"/><path d="m287.77 378.6 6.9942-1.3589 2.5064 3.7358 2.0632 3.3986s-0.55321 6.9837-0.55671 7.6211c-4e-3 0.63736 1.5195 4.5436 1.5195 4.5436l-3.3474 2.4331-8.9657 3.6736-8.3856-6.8119 0.24053-0.25653-7.8441-5.7639 2.6048-5.5996 6.5441-4.249z" fill="#e0a91f" stroke-opacity="0"/><path d="m279.16 382.08c-4.3088 11.394-9.8629 18.304-16.529 21.213-3.5172-10.335-0.28214-22.458 16.529-21.213z" fill="#11854a" stroke-opacity="0"/><path d="m279.02 382.01-6.25 3.375-5.4375-0.1875 4.3125 0.875-2 2-5.75 1.0625 4.9375-0.125-1.875 2.25-4.5 1.8125 3.875-0.625-1.625 2.75-2.4375 2.5 2.1875-1.5-1.875 7.125c7.9787-3.4011 12.946-11.263 16.438-21.312z" fill-opacity=".2" stroke-opacity="0"/><path d="m271.91 386.72 1.1048 3.4471-0.83969-3.8449z" fill="#fff" fill-opacity=".24528" stroke-opacity="0"/><path d="m269.19 389.88 1.1048 3.4471-0.83969-3.8449z" fill="#fff" fill-opacity=".24528" stroke-opacity="0"/><path d="m266.54 392.84 1.1048 3.4471-0.83969-3.8449z" fill="#fff" fill-opacity=".24528" stroke-opacity="0"/><path d="m264.69 396.29 1.1048 3.4471-0.83969-3.8449z" fill="#fff" fill-opacity=".24528" stroke-opacity="0"/><path d="m279.14 382.91c-11.952-2.3531-19.69-6.6799-23.668-12.769 9.6052-5.1877 22.098-4.0148 23.668 12.769z" fill="#11854a" stroke-opacity="0"/><path d="m279.18 382.76-4.3679-5.6013-0.71983-5.3929-0.14527 4.398-2.3049-1.6394-2.0044-5.4931 0.94478 4.8479-2.5306-1.4745-2.536-4.1357 1.261 3.717-2.982-1.1448-2.8707-1.9876 1.8431 1.9074-7.3376-0.66337c4.6812 7.3016 13.26 10.892 23.75 12.662z" fill-opacity=".2" stroke-opacity="0"/><path d="m273.36 376.53-3.2153 1.663 3.6516-1.4677z" fill="#fff" fill-opacity=".24528" stroke-opacity="0"/><path d="m269.79 374.38-3.2153 1.663 3.6516-1.4677z" fill="#fff" fill-opacity=".24528" stroke-opacity="0"/><path d="m266.43 372.26-3.2153 1.663 3.6516-1.4677z" fill="#fff" fill-opacity=".24528" stroke-opacity="0"/><path d="m262.72 371-3.2152 1.663 3.6516-1.4677z" fill="#fff" fill-opacity=".24528" stroke-opacity="0"/><path d="m301.99 383.32c12.133 1.0767 20.772-0.91788 26.291-5.6544-7.7753-7.6628-20.098-10.024-26.291 5.6544z" fill="#11854a" stroke-opacity="0"/><path d="m301.99 383.16 5.7578-4.1594 2.1966-4.9776-1.0882 4.2637 2.6709-0.93077 3.4581-4.7152-2.2605 4.3914 2.8416-0.70951 3.5896-3.2634-2.2485 3.2172 3.1831-0.26685 3.3114-1.1072-2.3022 1.3171 7.2312 1.4113c-6.5334 5.7046-15.773 6.7575-26.341 5.5291z" fill-opacity=".2" stroke-opacity="0"/><path d="m309.32 378.81 2.6232 2.4944-3.0967-2.4287z" fill="#fff" fill-opacity=".24528" stroke-opacity="0"/><path d="m313.35 377.74 2.6232 2.4944-3.0967-2.4287z" fill="#fff" fill-opacity=".24528" stroke-opacity="0"/><path d="m317.17 376.64 2.6232 2.4944-3.0967-2.4287z" fill="#fff" fill-opacity=".24528" stroke-opacity="0"/><path d="m321.08 376.47 2.6232 2.4944-3.0967-2.4287z" fill="#fff" fill-opacity=".24528" stroke-opacity="0"/><path d="m302.03 383.33c7.317 9.7386 14.579 14.825 21.792 15.758 0.49373-10.905-5.9958-21.644-21.792-15.758z" fill="#11854a" stroke-opacity="0"/><path d="m302.14 383.22 6.9435 1.4969 5.1692-1.6974-3.897 2.0436 2.4786 1.3625 5.8181-0.58422-4.7763 1.2578 2.4284 1.6374 4.827 0.4848-3.8955 0.48113 2.3278 2.1873 3.0383 1.7205-2.5192-0.83001 3.7887 6.3188c-8.6109-1.0396-15.575-7.2029-21.732-15.879z" fill-opacity=".2" stroke-opacity="0"/><path d="m310.28 385.76-0.099 3.6185-0.26657-3.9265z" fill="#fff" fill-opacity=".24528" stroke-opacity="0"/><path d="m313.78 388.04-0.0991 3.6185-0.26657-3.9265z" fill="#fff" fill-opacity=".24528" stroke-opacity="0"/><path d="m317.15 390.14-0.0991 3.6185-0.26657-3.9265z" fill="#fff" fill-opacity=".24528" stroke-opacity="0"/><path d="m319.89 392.93-0.099 3.6185-0.26657-3.9265z" fill="#fff" fill-opacity=".24528" stroke-opacity="0"/><path d="m298.22 389.28c9.1191 8.076 13.605 15.723 13.956 22.987-10.91-0.38431-21.092-7.7158-13.956-22.987z" fill="#11854a" stroke-opacity="0"/><path d="m298.1 389.39 0.93403 7.0414-2.1073 5.016 2.3502-3.7202 1.1589 2.5801-1.0499 5.7523 1.6375-4.6597 1.4369 2.5521 0.0953 4.8504 0.79264-3.8442 1.9932 2.4961 1.4708 3.1667-0.62487-2.5777 5.9938 4.2843c-0.3442-8.6666-5.9279-16.104-14.081-22.938z" fill-opacity=".2" stroke-opacity="0"/><path d="m299.98 397.71 3.6148 0.19207-3.8924-0.58125z" fill="#fff" fill-opacity=".24528" stroke-opacity="0"/><path d="m301.97 401.37 3.6148 0.19207-3.8923-0.58126z" fill="#fff" fill-opacity=".24528" stroke-opacity="0"/><path d="m303.79 404.9 3.6148 0.19207-3.8924-0.58126z" fill="#fff" fill-opacity=".24528" stroke-opacity="0"/><path d="m306.36 407.86 3.6148 0.1921-3.8924-0.58127z" fill="#fff" fill-opacity=".24528" stroke-opacity="0"/><path d="m294.46 402.67c6.2402 10.461 8.1959 19.109 6.3269 26.137-10.279-3.675-17.759-13.749-6.3269-26.137z" fill="#11854a" stroke-opacity="0"/><path d="m294.31 402.73-1.2455 6.993-3.5294 4.1407 3.3678-2.8322 0.32176 2.81-2.7451 5.163 2.9736-3.9436 0.5952 2.8677-1.3802 4.6508 1.9212-3.4227 1.1422 2.983 0.44108 3.4636 0.18635-2.6458 4.4122 5.9004c2.3005-8.3628-0.76468-17.143-6.4613-26.128z" fill-opacity=".2" stroke-opacity="0"/><path d="m293.58 411.23 3.3863 1.2793-3.5328-1.7344z" fill="#fff" fill-opacity=".24528" stroke-opacity="0"/><path d="m294.37 415.32 3.3862 1.2793-3.5327-1.7344z" fill="#fff" fill-opacity=".24528" stroke-opacity="0"/><path d="m295.03 419.24 3.3863 1.2793-3.5327-1.7344z" fill="#fff" fill-opacity=".24528" stroke-opacity="0"/><path d="m296.58 422.84 3.3863 1.2794-3.5327-1.7344z" fill="#fff" fill-opacity=".24528" stroke-opacity="0"/><path d="m290.07 401.99c1.3818 12.102-0.39472 20.789-4.9908 26.425-7.8561-7.58-10.526-19.84 4.9908-26.425z" fill="#11854a" stroke-opacity="0"/><path d="m289.91 401.99-4.0131 5.8607-4.9207 2.3212 4.2349-1.1952-0.86324 2.6935-4.6267 3.5757 4.3332-2.3703-0.63776 2.8586-3.172 3.6706 3.1596-2.3288-0.18665 3.1888-1.0235 3.3382 1.2587-2.3347 1.5929 7.1934c5.5384-6.6749 6.3584-15.939 4.8643-26.472z" fill-opacity=".2" stroke-opacity="0"/><path d="m285.75 409.43 2.5597 2.5596-2.5059-3.0346z" fill="#fff" fill-opacity=".24528" stroke-opacity="0"/><path d="m284.78 413.48 2.5597 2.5596-2.5059-3.0346z" fill="#fff" fill-opacity=".24528" stroke-opacity="0"/><path d="m283.77 417.33 2.5597 2.5596-2.5059-3.0346z" fill="#fff" fill-opacity=".24528" stroke-opacity="0"/><path d="m283.7 421.24 2.5597 2.5596-2.5059-3.0346z" fill="#fff" fill-opacity=".24528" stroke-opacity="0"/><path d="m282.82 389.18c-0.89827-0.63725-1.5746-1.7461-1.7327-2.8407-0.13488-0.93437-0.0586-1.5349 0.36242-2.8519 0.21331-0.66739 0.3826-1.2289 0.37616-1.2478-6e-3 -0.0189-0.17311-0.0679-0.3706-0.10828-0.34385-0.0708-0.38593-0.0488-1.0044 0.5224-2.1145 1.9533-4.044 2.8895-5.3647 2.6029-1.5313-0.33227-2.1173-2.4554-1.2656-4.5848 0.72317-1.8093 2.0806-2.9165 3.8144-3.1127 0.64173-0.0726 0.91215-0.0469 1.6604 0.15774 0.49158 0.13453 0.87575 0.20475 0.85365 0.15616-0.0221-0.0486-0.39582-0.31389-0.8305-0.58957-2.138-1.3559-3.4021-2.9241-3.487-4.3257-0.0616-1.018 0.60474-1.9948 1.7455-2.5585 1.9172-0.94744 4.3173-0.27243 5.4333 1.5281 0.5358 0.86445 0.67472 1.552 0.67309 3.3309-9.5e-4 1.0319 0.0418 1.6232 0.11971 1.6559 0.0667 0.0276 0.24276 0.18845 0.39131 0.35677l0.27012 0.30594 1.0591-0.86814c1.0789-0.8844 1.86-1.4241 2.7362-1.8907 1.2122-0.64543 2.6404-0.82813 3.3557-0.42923 1.5674 0.87414 1.561 3.7238-0.0128 5.675-1.2768 1.5829-3.2172 2.1409-4.9894 1.4347-0.39763-0.15845-0.96044-0.35215-1.2507-0.43036l-0.52773-0.14227 0.81655 1.0383c1.1013 1.4004 1.7201 2.4028 2.1465 3.477 0.80482 2.0273 0.39533 3.5907-1.1161 4.2612-1.1637 0.5163-2.6885 0.31003-3.862-0.52245z" fill="url(#linearGradient49)" stroke="url(#linearGradient50)" stroke-width=".092453"/><ellipse transform="matrix(.08137 .032426 -.036124 .09065 213.87 366.9)" cx="782.5" cy="-141.25" rx="28" ry="28.25" fill="#fffd9e" stroke-opacity="0"/><path d="m284.64 377.43c2.5045 2.6591-1.0627 6.8997-3.7092 4.2206 1.9008 1.3691 4.9973-0.68425 3.7092-4.2206z" fill-opacity=".2" stroke-opacity="0"/><ellipse transform="matrix(.08137 .032426 -.036124 .09065 213.74 366.53)" cx="782.38" cy="-144" rx="11.125" ry="11" fill="#fff" fill-opacity=".61321" filter="url(#filter19711-1-7-0-2-3-9)" stroke-opacity="0"/><path d="m284.7 377.4c5.6738-3.8585 7.0486-2.7576 8.1036-1.2877-0.53308-3.4911-4.6759-2.7143-8.1036 1.2877z" fill="#e8cc52" stroke-opacity="0"/><path d="m280.43 377.94c-2.6956-1.5529-8.4697 0.73972-6.7828 6.0619-0.0889-5.4525 4.3549-6.8174 6.7828-6.0619z" fill="#fffd9e" stroke-opacity="0"/><path d="m286.29 382.65c4.219 6.4385-1.1804 8.1634-3.1774 6.7187 5.9824 3.2912 6.5435-3.7028 3.1774-6.7187z" fill="#d39e2f" stroke-opacity="0"/><path d="m284.53 403.87c-1.0282-0.27284-2.0262-1.0928-2.5564-2.1005-0.45266-0.86023-0.59811-1.4765-0.69078-2.927-0.047-0.73498-0.0956-1.3494-0.10807-1.3654-0.0125-0.016-0.17862 1e-3 -0.36922 0.0385-0.33205 0.0647-0.36177 0.10245-0.71051 0.90128-1.1924 2.7312-2.5814 4.3969-3.8619 4.631-1.4847 0.27151-2.7627-1.5743-2.7598-3.986 2e-3 -2.049 0.81962-3.6589 2.297-4.5255 0.54686-0.32075 0.79732-0.40093 1.5378-0.49226 0.48652-0.06 0.85432-0.1409 0.81733-0.17976-0.037-0.0389-0.46485-0.15254-0.95079-0.25263-2.3901-0.49226-4.076-1.5321-4.6501-2.8682-0.41704-0.97045-0.16973-2.184 0.64779-3.1788 1.374-1.6718 3.7559-1.9467 5.3922-0.6223 0.78557 0.63588 1.154 1.2534 1.7852 2.9918 0.36613 1.0084 0.61456 1.5694 0.69571 1.571 0.0694 1e-3 0.28365 0.0896 0.47607 0.19617l0.34986 0.19372 0.63639-1.2603c0.64831-1.2839 1.1534-2.1152 1.7695-2.9121 0.85219-1.1024 2.0618-1.8368 2.842-1.7256 1.7096 0.24377 2.7173 3.03 2.0067 5.5486-0.57648 2.0433-2.1097 3.3438-3.9424 3.3438-0.41119 0-0.98233 0.0299-1.2692 0.0665l-0.52155 0.0665 1.098 0.69644c1.4808 0.93926 2.3895 1.6776 3.1521 2.5609 1.4392 1.6671 1.6297 3.3537 0.51936 4.5971-0.85492 0.95736-2.289 1.3494-3.6322 0.99301z" fill="url(#linearGradient51)" stroke="url(#linearGradient53)" stroke-width=".092923"/><ellipse transform="matrix(.084146 0 0 .10261 215.07 408.95)" cx="782.5" cy="-141.25" rx="28" ry="28.25" fill="#fffd9e" stroke-opacity="0"/><path d="m281.97 391.68c3.1807 1.6226 1.5053 7.1537-1.8091 5.5668 2.1832 0.59742 4.2163-2.6138 1.8091-5.5668z" fill-opacity=".2" stroke-opacity="0"/><ellipse transform="matrix(.084146 0 0 .10261 214.82 408.64)" cx="782.38" cy="-144" rx="11.125" ry="11" fill="#fff" fill-opacity=".61321" filter="url(#filter19711-2-9-7-1-2-2)" stroke-opacity="0"/><path d="m282.01 391.63c3.6911-5.9779 5.3095-5.4376 6.7738-4.4124-1.7172-3.2028-5.1381-0.83123-6.7738 4.4124z" fill="#e8cc52" stroke-opacity="0"/><path d="m278.4 393.82c-2.9578-0.46764-7.2954 4.0196-3.8973 8.562-2.0184-5.2917 1.462-8.3549 3.8973-8.562z" fill="#fffd9e" stroke-opacity="0"/><path d="m285.3 396.15c6.0547 4.6472 1.8497 8.434-0.44625 7.8002 6.5092 0.88623 4.5226-6.1643 0.44625-7.8002z" fill="#d39e2f" stroke-opacity="0"/><path d="m300.08 392.48c-1.0282-0.27284-2.0262-1.0928-2.5564-2.1005-0.45266-0.86023-0.59811-1.4765-0.69078-2.927-0.047-0.73498-0.0956-1.3494-0.10807-1.3654-0.0125-0.016-0.17862 1e-3 -0.36922 0.0385-0.33205 0.0647-0.36177 0.10245-0.71051 0.90128-1.1924 2.7312-2.5814 4.3969-3.8619 4.631-1.4847 0.27151-2.7627-1.5743-2.7598-3.986 2e-3 -2.049 0.81962-3.6589 2.297-4.5255 0.54686-0.32075 0.79732-0.40093 1.5378-0.49226 0.48652-0.06 0.85432-0.1409 0.81733-0.17976-0.037-0.0389-0.46485-0.15254-0.95079-0.25263-2.3901-0.49226-4.076-1.5321-4.6501-2.8682-0.41704-0.97045-0.16973-2.184 0.64779-3.1788 1.374-1.6718 3.7559-1.9467 5.3922-0.6223 0.78557 0.63588 1.154 1.2534 1.7852 2.9918 0.36613 1.0084 0.61456 1.5694 0.69571 1.571 0.0694 1e-3 0.28365 0.0896 0.47607 0.19617l0.34986 0.19372 0.63639-1.2603c0.64831-1.2839 1.1534-2.1152 1.7695-2.9121 0.85219-1.1024 2.0618-1.8368 2.842-1.7256 1.7096 0.24377 2.7173 3.03 2.0067 5.5486-0.57648 2.0433-2.1097 3.3438-3.9424 3.3438-0.41119 0-0.98233 0.0299-1.2692 0.0665l-0.52155 0.0665 1.098 0.69644c1.4808 0.93926 2.3895 1.6776 3.1521 2.5609 1.4392 1.6671 1.6297 3.3537 0.51936 4.5971-0.85492 0.95736-2.289 1.3494-3.6322 0.99301z" fill="url(#linearGradient54)" stroke="url(#linearGradient55)" stroke-width=".092923"/><ellipse transform="matrix(.084146 0 0 .10261 230.63 397.56)" cx="782.5" cy="-141.25" rx="28" ry="28.25" fill="#fffd9e" stroke-opacity="0"/><path d="m297.52 380.3c3.1807 1.6226 1.5053 7.1537-1.8091 5.5668 2.1832 0.59742 4.2163-2.6138 1.8091-5.5668z" fill-opacity=".2" stroke-opacity="0"/><ellipse transform="matrix(.084146 0 0 .10261 230.38 397.25)" cx="782.38" cy="-144" rx="11.125" ry="11" fill="#fff" fill-opacity=".61321" filter="url(#filter19711-2-0-8-7-7-1-25)" stroke-opacity="0"/><path d="m297.57 380.24c3.6911-5.9779 5.3095-5.4376 6.7738-4.4124-1.7172-3.2028-5.1381-0.83123-6.7738 4.4124z" fill="#e8cc52" stroke-opacity="0"/><path d="m293.95 382.43c-2.9578-0.46764-7.2954 4.0196-3.8973 8.562-2.0184-5.2917 1.462-8.3549 3.8973-8.562z" fill="#fffd9e" stroke-opacity="0"/><path d="m300.85 384.76c6.0547 4.6472 1.8497 8.434-0.44625 7.8002 6.5092 0.88623 4.5226-6.1643 0.44625-7.8002z" fill="#d39e2f" stroke-opacity="0"/><path d="m297.46 406.98c-1.0282-0.27284-2.0262-1.0928-2.5564-2.1005-0.45266-0.86023-0.59811-1.4765-0.69078-2.927-0.047-0.73498-0.0956-1.3494-0.10807-1.3654-0.0125-0.016-0.17862 1e-3 -0.36922 0.0385-0.33205 0.0647-0.36177 0.10245-0.71051 0.90128-1.1924 2.7312-2.5814 4.3969-3.8619 4.631-1.4847 0.27151-2.7627-1.5743-2.7598-3.986 2e-3 -2.049 0.81962-3.6589 2.297-4.5255 0.54686-0.32075 0.79732-0.40093 1.5378-0.49226 0.48652-0.06 0.85432-0.1409 0.81733-0.17976-0.037-0.0389-0.46485-0.15254-0.95079-0.25263-2.3901-0.49226-4.076-1.5321-4.6501-2.8682-0.41704-0.97045-0.16973-2.184 0.64779-3.1788 1.374-1.6718 3.7559-1.9467 5.3922-0.6223 0.78557 0.63588 1.154 1.2534 1.7852 2.9918 0.36613 1.0084 0.61456 1.5694 0.69571 1.571 0.0694 1e-3 0.28365 0.0896 0.47607 0.19617l0.34986 0.19372 0.63639-1.2603c0.64831-1.2839 1.1534-2.1152 1.7695-2.9121 0.85219-1.1024 2.0618-1.8368 2.842-1.7256 1.7096 0.24377 2.7173 3.03 2.0067 5.5486-0.57648 2.0433-2.1097 3.3438-3.9424 3.3438-0.41119 0-0.98233 0.0299-1.2692 0.0665l-0.52155 0.0665 1.098 0.69644c1.4808 0.93926 2.3895 1.6776 3.1521 2.5609 1.4392 1.6671 1.6297 3.3537 0.51936 4.5971-0.85492 0.95736-2.289 1.3494-3.6322 0.99301z" fill="url(#linearGradient56)" stroke="url(#linearGradient57)" stroke-width=".092923"/><ellipse transform="matrix(.084146 0 0 .10261 228 412.06)" cx="782.5" cy="-141.25" rx="28" ry="28.25" fill="#fffd9e" stroke-opacity="0"/><path d="m294.9 394.8c3.1807 1.6226 1.5053 7.1537-1.8091 5.5668 2.1832 0.59742 4.2163-2.6138 1.8091-5.5668z" fill-opacity=".2" stroke-opacity="0"/><ellipse transform="matrix(.084146 0 0 .10261 227.75 411.75)" cx="782.38" cy="-144" rx="11.125" ry="11" fill="#fff" fill-opacity=".61321" filter="url(#filter19711-2-5-0-0-6-8-9)" stroke-opacity="0"/><path d="m294.94 394.74c3.6911-5.9779 5.3095-5.4376 6.7738-4.4124-1.7172-3.2028-5.1381-0.83123-6.7738 4.4124z" fill="#e8cc52" stroke-opacity="0"/><path d="m291.33 396.93c-2.9578-0.46764-7.2954 4.0196-3.8973 8.562-2.0184-5.2917 1.462-8.3549 3.8973-8.562z" fill="#fffd9e" stroke-opacity="0"/><path d="m298.23 399.26c6.0547 4.6472 1.8497 8.434-0.44625 7.8002 6.5092 0.88623 4.5226-6.1643 0.44625-7.8002z" fill="#d39e2f" stroke-opacity="0"/></g><path transform="matrix(1.0225 0 0 1.0225 -3.8438 -2.0572)" d="m261.72 101.01-5.1517 8.6336-1.5116 40.195h-5.1929v3.7756h-4.7596v3.7758h-4.7597v3.7741h42.751v-3.7741h-4.7599v-3.7758h-4.7599v-3.7756h-5.1924l-1.5116-40.195z" fill-opacity=".2" filter="url(#filter23037-53)" stop-color="#000000" style="-inkscape-stroke:none;font-variation-settings:normal"/><path d="m261.21 98.902-5.2677 8.828-1.5456 41.1h-5.3098v3.8606h-4.8668v3.8608h-4.8669v3.8591h43.714v-3.8591h-4.8671v-3.8608h-4.8671v-3.8606h-5.3093l-1.5456-41.1z" fill="url(#linearGradient59)" stop-color="#000000" stroke="#616161" stroke-width="1.0225" style="-inkscape-stroke:none;font-variation-settings:normal"/><g transform="matrix(2.2957 0 0 2.2957 -68.265 -309.27)" stroke="#616161" stroke-linecap="round" stroke-linejoin="round"><path d="m112.5 180.01-9.3291 6.7992v14.472l-20.488 15.13v17.994h-3.6411v2.4338h0.96818v18.259h-3.8316v4.9949h72.642v-4.9949h-3.8309v-18.259h0.96828v-2.4338h-3.6418v-17.994l-20.488-15.13v-14.472z" fill="url(#linearGradient86)" stroke-width=".65"/><g fill="none"><g stroke-width=".65"><path d="m82.684 234.4h59.633"/><path d="m82.684 216.41h59.633"/><path d="m103.17 201.28 18.657 1e-5"/><path d="m103.17 186.8h18.657"/><path d="m80.011 255.09h64.98"/></g><g stroke-width=".5"><path d="m105.75 240.09h13.5v15h-13.5z"/><path d="m131.75 240.59h5.8627v9.447h-5.8627z"/><path d="m87.384 221.5h5.8631v9.447h-5.8631z"/><path d="m131.75 221.5h5.8627v9.447h-5.8627z"/><path d="m115.23 221.5h5.8627v12.901h-5.8627z"/><path d="m103.91 221.5h5.8627v12.901h-5.8627z"/><path d="m87.384 240.59h5.8627v9.447h-5.8627z"/><path d="m109.14 189.78h6.73v5.86h-6.73z"/></g><path d="m98.977 234.4h2.914v20.692h-2.914z" stroke-width=".5"/><path d="m123.11 234.4h2.914v20.693h-2.914z" stroke-width=".5"/></g><path d="m97.848 228.81h29.305v5.9329h-29.305z" fill="url(#linearGradient88)" stroke-width=".5"/><g fill="#21468b" stroke-width=".4"><g transform="translate(-6.9074)"><path d="m107.9 228.81v5.9329"/><path d="m106.78 228.81v5.9329"/></g><g transform="translate(17.226)"><path d="m107.9 228.81v5.9329"/><path d="m106.78 228.81v5.9329"/></g><g transform="translate(-3.4598)"><path d="m107.9 228.81v5.9329"/><path d="m106.78 228.81v5.9329"/></g><g transform="translate(-.012203)"><path d="m107.9 228.81v5.9329"/><path d="m106.78 228.81v5.9329"/></g><g transform="translate(3.4354)"><path d="m107.9 228.81v5.9329"/><path d="m106.78 228.81v5.9329"/></g><g transform="translate(6.883)"><path d="m107.9 228.81v5.9329"/><path d="m106.78 228.81v5.9329"/></g><g transform="translate(10.331)"><path d="m107.9 228.81v5.9329"/><path d="m106.78 228.81v5.9329"/></g><g transform="translate(13.778)"><path d="m107.9 228.81v5.9329"/><path d="m106.78 228.81v5.9329"/></g></g></g></g><g transform="translate(-1711.3 -248.77)"><path d="m1906.1 285.78c5.0214 3.148 0.2714 6.5135-3.5745 4.3515-9.5072-7.1984-20.618-11.19-35.9-6.8381-21.957 0.0803-45.918-1.7931-55.948 10.413-1.5068 1.8337-6.7141 10.72 16.318-1.7095-1.4359 8.5955 9.2784 1.5692 17.562-2.3312-5.707 5.9686 8.737 6.9475 17.872 1.0879-4.4905 6.027 3.397 5.8649 10.879 5.9057 10.943 0.34258 4.6887 13.078-13.832 10.257-1.8796-0.28626-6.7341 2.8068 0.4663 4.1961 3.225 0.62227 0.6119 4.7398 11.967-1.0879-0.7054 3.4106 4.1602 2.7499 11.034 0.62164 3.8985 3.065 7.0626-0.11218 10.413-1.7095 14.347 5.6106 33.29 11.228 38.387-8.2368 11.973-1.3799 21.884-3.1381 16.518-7.6967 15.598 6.3623 16.501 3.9078 16.264 0.76925 7.4804 2.8278 16.181 6.6566 12.638 0.43957 7.1915 1.8383 15.068 2.4778 21.209 6.154 6.2225 3.224 4.2091-2.4092 2.7473-4.9452-3.1868-5.1016-7.2166-6.6066-16.304-6.793-7.7056-0.15812-43.816-10.23-62.599 0.63905h0.1099c-0.3297 0-7.8024-7.0332-7.8024-7.0332 1.7193-0.046 2.9604-0.91164 3.9561-2.1979 7.3262 0.3691 14.652-0.33286 21.979-2.3078 3.3379-1.0422 5.241 0.94556 5.165 2.4176 3.0533-5.3734-1.174-6.486-4.2858-6.2639-12.393 0.70257-19.833 0.0541-25.825-0.98903-11.879-5.9291-26.177 3.1672-12.967 10.66z" fill-opacity=".2" filter="url(#filter23037-53)" stop-color="#000000" style="-inkscape-stroke:none;font-variation-settings:normal"/><g><path d="m1904.6 284.28c5.0214 3.148 0.2714 6.5135-3.5745 4.3515-9.5072-7.1984-20.618-11.19-35.9-6.8381-21.957 0.0803-45.918-1.7931-55.948 10.413-1.5068 1.8337-6.7141 10.72 16.318-1.7095-1.4359 8.5955 9.2784 1.5692 17.562-2.3312-5.707 5.9686 8.737 6.9475 17.872 1.0879-4.4905 6.027 3.397 5.8649 10.879 5.9057 10.943 0.34258 4.6887 13.078-13.832 10.257-1.8796-0.28626-6.7341 2.8068 0.4663 4.1961 3.225 0.62227 0.6119 4.7398 11.967-1.0879-0.7054 3.4106 4.1602 2.7499 11.034 0.62164 3.8985 3.065 7.0626-0.11218 10.413-1.7095 14.347 5.6106 33.29 11.228 38.387-8.2368 11.973-1.3799 21.884-3.1381 16.518-7.6967 15.598 6.3623 16.501 3.9078 16.264 0.76925 7.4804 2.8278 16.181 6.6566 12.638 0.43957 7.1915 1.8383 15.068 2.4778 21.209 6.154 6.2225 3.224 4.2091-2.4092 2.7473-4.9452-3.1868-5.1016-7.2166-6.6066-16.304-6.793-7.7056-0.15812-43.816-10.23-62.599 0.63905h0.1099c-0.3297 0-7.8024-7.0332-7.8024-7.0332 1.7193-0.046 2.9604-0.91164 3.9561-2.1979 7.3262 0.3691 14.652-0.33286 21.979-2.3078 3.3379-1.0422 5.241 0.94556 5.165 2.4176 3.0533-5.3734-1.174-6.486-4.2858-6.2639-12.393 0.70257-19.833 0.0541-25.825-0.98903-11.879-5.9291-26.177 3.1672-12.967 10.66z" fill="#b29180"/><path d="m1838.3 282.06 26.374-0.32968c9.2057-2.4467 22.74-3.8562 36.484 7.143-15.718-5.2495-27.798-7.1307-35.605-5.0551z" fill-opacity=".2" stop-color="#000000" style="-inkscape-stroke:none;font-variation-settings:normal"/><path d="m1920.7 287.55c11.263 6.9699 9.6798 19.644-5.0278 25.407 5.4321-1.0492 9.4081-3.1589 11.369-6.1816 5.7438-8.8556 2.0869-17.518-6.3409-19.225z" fill-opacity=".2" stop-color="#000000" style="-inkscape-stroke:none;font-variation-settings:normal"/><path d="m1907.4 273.76c-2.4859 0.37043-5.0517 0.66854-6.0441 2.3902 0.073-2.8332 4.29-3.0288 6.0441-2.3902z" fill="#65564e"/><ellipse cx="1906.1" cy="274.8" rx="1.0715" ry="1.0989" fill="#65564e"/></g></g><g transform="matrix(1.0085 0 0 1.0085 -151.67 -270.35)"><path d="m166.92 472.61c-3.9454 11.921-5.8523 22.465-6.6929 31.017l-8.8625-0.6407c-4.34 34.986 2.6071 120.63 91.644 135.48l-0.085 9.4895c25.122 13.849 83.58 16.863 96.297 16.763 12.705 0.10015 70.452-2.8633 95.461-16.661l-0.1567-9.5802c89.104-14.814 96.057-100.49 91.716-135.49l-8.8625 0.6407c-0.8407-8.5525-2.7474-19.097-6.6929-31.017l-23.937 5.395c10.853 32.594 5.7957 45.131 5.791 45.047l7.2319 1.1247c-4.164 31.839-21.516 83.895-98.552 87.399l0.836 8.0596c-17.123 4.7305-44.327 7.7411-62.896 7.6884-18.511 0-46.228-3.0361-63.602-7.7489l0.8277-7.9991c-77.036-3.5041-94.388-55.559-98.552-87.399l7.2319-1.1247c0 0.0837-5.0621-12.453 5.791-45.047z" fill="url(#linearGradient61)"/><path d="m512 529.26-4.5769 0.45212-0.1674 1.094 0.5284 0.41116a0.30585 0.30605 0 0 1 0.045 0.4428c-0.7759 0.87851-1.2526 1.9088-1.4381 3.1238-0.1551 1.01-0.099 1.9534 0.16 2.8373v7e-3c0.262 0.87946 0.6663 1.5535 1.2094 2.0447 0.5439 0.48945 1.1633 0.78074 1.8847 0.89119 0.5046 0.0773 0.9923 0.0511 1.4828-0.0856 0.4905-0.13942 0.8998-0.34062 1.2298-0.5991 0.3316-0.26617 0.6949-0.68404 1.0736-1.2521 0.3798-0.58635 0.6491-1.0502 0.8-1.3805l1.0884-2.3387c0.4583-0.99957 0.8643-1.6924 1.28-2.1117a0.30585 0.30605 0 0 0 0-2e-3 0.30585 0.30605 0 0 0 0-2e-3c0.4115-0.40798 0.9152-0.61132 1.4326-0.53211 0.3217 0.0493 0.6214 0.21535 0.8689 0.46329 0.2607 0.26036 0.4296 0.61336 0.5172 1.0251v4e-3c0.087 0.414 0.084 0.89463 0 1.4438-0.1894 1.2358-0.7748 2.3196-1.7377 3.2224-0.8908 0.82245-1.9553 1.3361-3.1145 1.6522l0.1321 1.5554 5.2932-0.15263 0.1693-1.1145-0.8074-0.51722a0.30585 0.30605 0 0 1-0.065-0.46326c0.5607-0.61759 0.982-1.221 1.2689-1.8084 0.2805-0.59102 0.4828-1.2611 0.5991-2.0131 0.2469-1.6153-0.023-3.0042-0.7666-4.2159-0.6816-1.0804-1.5801-1.6844-2.7666-1.8661-0.927-0.14193-1.7597 0.0342-2.5526 0.5414-0.7695 0.50329-1.5079 1.4732-2.1805 2.9359a0.30585 0.30605 0 0 0 0 9e-3l-1.2485 2.681v4e-3c-0.3653 0.80828-0.7159 1.3674-1.1311 1.6894-0.3887 0.30688-0.8355 0.4611-1.2708 0.39442-0.4157-0.0636-0.7444-0.37395-0.9637-0.80746a0.30585 0.30605 0 0 0 0-2e-3 0.30585 0.30605 0 0 0 0-2e-3 0.30585 0.30605 0 0 0 0-2e-3c-0.2284-0.46161-0.2745-1.02-0.175-1.6633 0.1511-0.99042 0.591-1.8879 1.2986-2.6698 0.6565-0.73324 1.632-1.2952 2.7983-1.7638zm-340.97 11.068c-0.2595 4e-3 -0.52 0.0363-0.7852 0.0987h-0.022c-0.4968 0.11736-0.9433 0.32935-1.347 0.64003-0.4024 0.31306-0.7006 0.65258-0.9098 1.0158v7e-3c-0.2064 0.37-0.386 0.88905-0.5246 1.5535v4e-3c-0.1305 0.68369-0.1965 1.2174-0.2177 1.5796a0.30585 0.30605 0 0 0 0 4e-3l-0.1358 2.5712c-0.051 1.0986-0.1675 1.9001-0.3963 2.4447-0.2288 0.53246-0.6219 0.90844-1.1312 1.0289-0.3169 0.075-0.6526 0.0311-0.9749-0.10603-0.3395-0.14424-0.6287-0.40543-0.8652-0.75538-0.2394-0.34976-0.413-0.79696-0.5414-1.3377-0.2873-1.2167-0.1492-2.4431 0.4056-3.641a0.30585 0.30605 0 0 0 0-2e-3 0.30585 0.30605 0 0 0 0-2e-3c0.5179-1.0957 1.3142-1.9668 2.2698-2.694l-0.7032-1.3935-4.8486 2.1228 0.2587 1.0996 0.9414 0.17678a0.30585 0.30605 0 0 1 0.2307 0.40561c-0.2885 0.78265-0.4499 1.5004-0.4968 2.1526-0.039 0.65321 0.026 1.351 0.201 2.0912 0.3753 1.5891 1.1319 2.7759 2.2828 3.6168 1.0363 0.74639 2.0972 0.97016 3.2652 0.69398 0.9128-0.21579 1.6184-0.68915 2.1638-1.4568 0.5254-0.75502 0.8474-1.9341 0.9228-3.5424l0.1507-2.9601c0.037-0.88935 0.1573-1.5432 0.4224-1.9982 0.2454-0.43019 0.5964-0.73399 1.0251-0.83536 0.4092-0.0968 0.8345 0.0653 1.2001 0.38512 0.3841 0.34254 0.6381 0.84584 0.787 1.4791 0.2287 0.97378 0.1583 1.9731-0.2047 2.962v4e-3c-0.3343 0.92592-1.0289 1.8151-1.9349 2.6866l0.7628 1.3694 4.0727-2.1377-0.2531-1.0698-0.6437-0.18413a0.30585 0.30605 0 0 1-0.2084-0.39815c0.3911-1.1054 0.4502-2.2439 0.1675-3.4401-0.2353-0.9957-0.6375-1.848-1.2094-2.5712-0.5725-0.71912-1.2036-1.1915-1.8921-1.4438-0.3392-0.12283-0.6801-0.19694-1.0214-0.21769h-0.013c-0.082-4e-3 -0.1655-7e-3 -0.2474-4e-3zm334 3.9815-1.533 5.2857 1.3805 0.40187 0.1191-0.39813c0.102-0.34737 0.1889-0.58395 0.3777-0.76655 0.1551-0.15788 0.3618-0.24025 0.5898-0.26605 0.1345-0.0168 0.2473-2e-3 0.3981 0.0279 0.153 0.0309 0.3372 0.0795 0.5601 0.14508l5.0773 1.4884a0.30585 0.30605 0 0 1-0.037 0.59908l-9.3305 1.7005-1.5536 5.3099 1.3787 0.40187 0.1376-0.47071c0.086-0.29105 0.1733-0.51072 0.3442-0.67723 0.149-0.15138 0.3462-0.24206 0.5619-0.27351 0.2471-0.0391 0.5125 9e-3 0.8447 0.10603l8.1546 2.3908c0.3108 0.0912 0.5517 0.20302 0.7331 0.37769 0.159 0.1541 0.2723 0.35089 0.307 0.56559a0.30585 0.30605 0 0 0 0 4e-3 0.30585 0.30605 0 0 0 0 4e-3c0.033 0.24107-0.026 0.48931-0.1303 0.84467l-0.091 0.31629 1.3768 0.40559 1.5535-5.3174-1.3768-0.40187-0.1097 0.38512c-0.102 0.34657-0.2052 0.59931-0.3777 0.78702a0.30585 0.30605 0 0 0 0 4e-3c-0.1427 0.14844-0.3265 0.25705-0.5284 0.28837a0.30585 0.30605 0 0 1-0.021 0c-0.2596 0.0275-0.5111-0.0502-0.9433-0.17678l-7.3267-2.1489a0.30585 0.30605 0 0 1 0.034-0.59165l11.833-2.1805 0.7182-2.4522-10.704-3.1331c-0.4408-0.12891-0.7119-0.21585-0.9191-0.38514-0.1672-0.13647-0.2806-0.33196-0.3274-0.54513a0.30585 0.30605 0 0 1 0-9e-3c-0.051-0.25813 0-0.52766 0.1023-0.8763l0.1117-0.36652zm-327.14 10.895-1.3507 0.53026 0.1265 0.32373c0.1448 0.36557 0.2313 0.61995 0.1972 0.88932v4e-3c-0.021 0.20072-0.112 0.39054-0.2549 0.53396-0.1897 0.20114-0.452 0.31776-0.8726 0.48373l-7.5072 2.9601c-0.234 0.0924-0.4257 0.16397-0.5786 0.21394-0.1529 0.0502-0.2494 0.0825-0.3758 0.0893a0.30585 0.30605 0 0 1-0.022 7e-3c-0.2598-9.6e-4 -0.5127-0.11086-0.6921-0.29583-0.2019-0.20722-0.3466-0.51562-0.5321-0.98794l-0.03-0.0651-1.3395 0.53211 4.508 11.429 5.3099-0.1898-0.061-1.4959c-0.7686 0.0105-1.5145-0.045-2.1954-0.27536-0.7664-0.25889-1.4194-0.65488-1.9387-1.1851-0.5134-0.53454-0.9403-1.2552-1.2912-2.1452l-0.4577-1.1554c-0.1305-0.32814-0.2113-0.53251-0.2102-0.75909a0.30585 0.30605 0 0 1 0-9e-3c0-0.16292 0.064-0.33189 0.1842-0.45583 0.092-0.0947 0.1659-0.12954 0.2753-0.18413 0.1102-0.0544 0.2528-0.11254 0.4261-0.18056l3.1592-1.2465a0.30585 0.30605 0 0 1 0.3981 0.17111l0.2456 0.61956c0.2279 0.57773 0.3584 0.94431 0.3572 1.2559-9e-4 0.26648-0.117 0.5184-0.2995 0.7256-0.2052 0.24218-0.5145 0.4146-0.9396 0.58235l-0.3107 0.12283 0.467 1.1889 5.2615-2.0745-0.4707-1.1889-0.2381 0.093c-0.4963 0.19589-0.8362 0.30523-1.148 0.28278-0.2636-0.0231-0.5079-0.14968-0.6995-0.34419a0.30585 0.30605 0 0 0 0-2e-3 0.30585 0.30605 0 0 0 0-2e-3c-0.2145-0.22476-0.3757-0.56946-0.5861-1.1033l-0.2716-0.69211a0.30585 0.30605 0 0 1 0.173-0.39816l3.4383-1.3582a0.30585 0.30605 0 0 1 0.3963 0.17679l0.8279 2.1043c0.265 0.67343 0.429 1.2991 0.48 1.881 0.061 0.60769-0.065 1.2292-0.3609 1.8419v4e-3c-0.2555 0.54054-0.6827 1.0648-1.1796 1.5908l0.9823 1.12 3.3453-2.9434zm321.11 7.8403-5.0978 10.691 1.2986 0.61584 0.1433-0.3163c0.1693-0.35271 0.2995-0.58743 0.5173-0.74608 0.1632-0.12597 0.3706-0.1879 0.5767-0.18055 0.2749 2e-3 0.5337 0.11526 0.9396 0.30886l7.2858 3.4717c0.2271 0.10834 0.4119 0.20156 0.5526 0.27909 0.1405 0.0774 0.2282 0.12849 0.32 0.21768a0.30585 0.30605 0 0 1 0.021 9e-3c0.1815 0.19127 0.2828 0.45461 0.2624 0.71631-0.021 0.2887-0.1414 0.59937-0.361 1.0586l-0.028 0.0614 1.2987 0.61955 5.2783-11.102-3.7545-3.7508-1.0438 1.0661c0.5307 0.55437 0.9898 1.1413 1.2856 1.7954v9e-3c0.3336 0.73722 0.4922 1.4838 0.4596 2.2252-0.041 0.74048-0.2733 1.5438-0.6847 2.4075l-0.5321 1.12c-0.1511 0.31856-0.2477 0.51747-0.4149 0.67164a0.30585 0.30605 0 0 0 0 7e-3c-0.1223 0.10729-0.2864 0.18372-0.4577 0.18057-0.1305-2e-3 -0.2077-0.0399-0.3237-0.0837-0.1163-0.0441-0.2552-0.0989-0.4224-0.17867l-3.0661-1.4642a0.30585 0.30605 0 0 1-0.1433-0.41117l0.2865-0.60283c0.2668-0.56068 0.4392-0.90292 0.6679-1.1144 0.1977-0.18204 0.4639-0.27296 0.7424-0.2791 0.315-0.0126 0.6509 0.0951 1.0605 0.29025l0.2995 0.14508 0.5489-1.1572-5.1016-2.4317-0.5488 1.1517 0.2288 0.11527c0.4812 0.2296 0.796 0.40111 0.9917 0.64374 0.1712 0.20995 0.2511 0.48516 0.2307 0.7628-0.021 0.31023-0.1643 0.65968-0.4112 1.1777l-0.3144 0.67537a0.30585 0.30605 0 0 1-0.4093 0.14508l-3.336-1.5926a0.30585 0.30605 0 0 1-0.1433-0.40933l0.9749-2.0428c0.3106-0.65248 0.6591-1.1944 1.0494-1.628 0.4031-0.46212 0.9408-0.79633 1.5926-0.99911v4e-3c0.569-0.18203 1.2492-0.22588 1.9721-0.22139l0.1396-1.4922zm-314.84 7.9407-1.2131 0.7777 0.2716 0.42234a0.30585 0.30605 0 0 0 0 7e-3c0.1591 0.25304 0.2641 0.46835 0.2866 0.69956a0.30585 0.30605 0 0 0 0 7e-3 0.30585 0.30605 0 0 0 0 4e-3c0.021 0.21611-0.06 0.43413-0.1842 0.61584-0.1387 0.20723-0.3367 0.33906-0.668 0.55258l-6.9788 4.4987c-0.3415 0.22014-0.5964 0.35959-0.8614 0.39444-0.2173 0.0319-0.4448-0.0168-0.6344-0.12828a0.30585 0.30605 0 0 0 0-2e-3 0.30585 0.30605 0 0 0 0-2e-3c-0.22-0.13668-0.3772-0.35445-0.5898-0.68466l-0.1526-0.24561-1.2131 0.7833 2.9508 4.5843 1.2094-0.77582-0.2214-0.3442c-0.1754-0.27219-0.2902-0.49312-0.3331-0.71817a0.30585 0.30605 0 0 1 0-0.0168c-0.024-0.19442 0-0.39146 0.071-0.56934a0.30585 0.30605 0 0 1 0-0.0126c0.092-0.19589 0.2559-0.34416 0.4577-0.47444l7.5686-4.8764a0.30585 0.30605 0 0 1 0.3944 0.45582l-7.9462 9.2003 0.8651 1.3414 12.052-3.5462a0.30585 0.30605 0 0 1 0.2494 0.54886l-7.6542 4.9378c-0.3136 0.20176-0.5508 0.32787-0.8112 0.35165-0.2112 0.0229-0.4234-0.034-0.6028-0.15074-0.2214-0.14404-0.3887-0.37259-0.6159-0.72561l-0.1339-0.21024-1.2056 0.77955 3.5238 5.483 1.2093-0.77956-0.2902-0.45025c-0.1551-0.24159-0.2512-0.48261-0.2716-0.72745v-4e-3c-0.021-0.20155 0.04-0.4009 0.1525-0.57302 0.069-0.10834 0.1435-0.16692 0.2456-0.24745 0.102-0.0804 0.2298-0.16691 0.3889-0.26977l7.0737-4.5564c0.4146-0.26712 0.763-0.42552 1.1219-0.36465 0.3545 0.0609 0.6303 0.32744 0.8688 0.69767l0.2289 0.36096 1.213-0.77956-3.401-5.2858-8.8059 2.575a0.30585 0.30605 0 0 1-0.3144-0.49675l6.0356-6.8728zm307.52 6.203-3.708 5.483 1.1889 0.80749 0.1991-0.29398c0.1101-0.16482 0.2079-0.29589 0.2995-0.40188 0.09-0.10456 0.1689-0.18875 0.2921-0.25117 0.1998-0.10224 0.4298-0.13101 0.6475-0.0819 0.2714 0.0497 0.5214 0.20849 0.9098 0.47072l6.8225 4.6104c0.3342 0.22597 0.5483 0.38663 0.6829 0.61025 0.1101 0.17468 0.1607 0.38657 0.1321 0.59165a0.30585 0.30605 0 0 0 0 4e-3 0.30585 0.30605 0 0 0 0 4e-3 0.30585 0.30605 0 0 0 0 4e-3c-0.047 0.25958-0.1932 0.4831-0.4335 0.84094l-0.1563 0.23445 1.1889 0.80372 3.6987-5.4792-1.1926-0.80375-0.2698 0.39814c-0.1793 0.26527-0.3564 0.45926-0.5823 0.57492-0.1754 0.10161-0.3883 0.13394-0.5861 0.0893-0.2507-0.0569-0.4805-0.20723-0.8595-0.46327l-6.7947-4.588c-0.3519-0.23777-0.5772-0.40892-0.72-0.61955a0.30585 0.30605 0 0 0 0-2e-3 0.30585 0.30605 0 0 0 0-2e-3c-0.1183-0.18161-0.1806-0.39648-0.1563-0.60841 0.026-0.27153 0.1695-0.49843 0.3926-0.82793l0.1972-0.29396zm-5.7899 11.249c-0.5568 0.0105-1.1047 0.10645-1.6391 0.2791-1.0557 0.34117-2.1911 1.129-3.3899 2.3777l-5.1667 5.3769 1.0363 0.99911 0.1396-0.14696c0.3184-0.33171 0.5293-0.5343 0.8037-0.62699 0.1997-0.0773 0.4235-0.0832 0.6233-9e-3 0.2687 0.0874 0.4695 0.27595 0.8018 0.59537l5.8365 5.6132c0.3352 0.32281 0.5415 0.52154 0.6475 0.76655a0.30585 0.30605 0 0 0 0 7e-3 0.30585 0.30605 0 0 0 0 4e-3 0.30585 0.30605 0 0 1 0 2e-3 0.30585 0.30605 0 0 1 0 2e-3 0.30585 0.30605 0 0 1 0 2e-3 0.30585 0.30605 0 0 1 0 2e-3 0.30585 0.30605 0 0 1 0 2e-3 0.30585 0.30605 0 0 1 0 2e-3 0.30585 0.30605 0 0 1 0 2e-3c0.081 0.22394 0.104 0.45766 0.041 0.67536-0.08 0.27581-0.2753 0.4931-0.586 0.81679l-0.1395 0.14696 1.04 0.99725 4.5211-4.7164c0.3926-0.409 0.876-1.0252 1.4344-1.8401 0.5597-0.81435 0.9245-1.495 1.0977-2.015 0.236-0.70893 0.3338-1.5 0.2828-2.3815-0.057-0.88315-0.2728-1.7088-0.6474-2.4819-0.3684-0.77516-0.9236-1.522-1.6726-2.2419-1.0772-1.0351-2.1943-1.6925-3.3564-1.9889-0.5829-0.15095-1.1488-0.2246-1.7042-0.21396zm-289.61 0.20827-1.0159 1.0214 0.2866 0.28653c0.2581 0.25674 0.4274 0.44569 0.4967 0.70141 0.063 0.20346 0.039 0.42634-0.047 0.62328v7e-3c-0.104 0.24304-0.3032 0.4574-0.6307 0.78699l-5.7453 5.7806c-0.315 0.31714-0.5241 0.51491-0.7777 0.61212-0.205 0.0739-0.439 0.0682-0.6437-9e-3 -0.2561-0.0964-0.469-0.2902-0.7907-0.61026l-0.1303-0.13962-1.0177 1.0214 4.6885 4.6625 1.0159-1.0214-0.32-0.3163c-0.2361-0.23445-0.3929-0.42837-0.4745-0.65488-0.067-0.19505-0.067-0.41126 0-0.60841 0.039-0.12156 0.094-0.20491 0.1712-0.30326 0.08-0.10077 0.1853-0.21228 0.3125-0.34048l1.9499-1.9684a0.30585 0.30605 0 0 1 0.4353 0l1.7936 1.7843c1.1788 1.1725 2.3585 1.771 3.561 1.8419 1.2223 0.0764 2.2154-0.29694 3.0531-1.1405 0.4152-0.41792 0.7158-0.89099 0.9136-1.427 0.2043-0.54096 0.2867-1.0985 0.2418-1.6819-0.039-0.57427-0.2102-1.1459-0.5191-1.7173-0.2966-0.56572-0.7873-1.2024-1.4754-1.8866zm288.33 2.5917c0.096-9.6e-4 0.1951 4e-3 0.294 0.0126l0.01-4e-3c0.3958 0.0288 0.8163 0.12535 1.254 0.27349 0.8869 0.29079 1.7309 0.82622 2.5322 1.5963 0.8135 0.78182 1.382 1.6192 1.6931 2.5136a0.30585 0.30605 0 0 0 0 4e-3c0.3017 0.88183 0.3567 1.727 0.1433 2.5173-0.2161 0.78896-0.7483 1.6049-1.574 2.4652-0.296 0.30753-0.4722 0.48663-0.6679 0.59536a0.30585 0.30605 0 0 1-0.021 0.0105c-0.1672 0.0753-0.3661 0.0869-0.5414 0.0371-0.1245-0.0384-0.1828-0.0945-0.2698-0.16376-0.087-0.0693-0.1861-0.15431-0.3033-0.26605l-6.6383-6.3853a0.30585 0.30605 0 0 1-0.022-0.43351l1.1349-1.1814c0.743-0.77406 1.4511-1.2711 2.1526-1.4717 0.2615-0.0748 0.5338-0.11632 0.8224-0.11905zm-286.19 2.2308a0.30585 0.30605 0 0 1 0.2084 0.0819l1.1684 1.161c0.5704 0.56728 0.9195 1.1322 0.9991 1.7136 0.104 0.7342-0.1333 1.4192-0.668 1.9572-0.3541 0.35663-0.7639 0.59404-1.2167 0.6884-0.4384 0.087-0.8781 0.0518-1.2987-0.10603a0.30585 0.30605 0 0 0 0-2e-3 0.30585 0.30605 0 0 0 0-2e-3 0.30585 0.30605 0 0 0 0-2e-3c-0.4394-0.17322-0.9098-0.54261-1.4717-1.1014l-0.8967-0.88561a0.30585 0.30605 0 0 1 0-0.43536l2.9675-2.9862a0.30585 0.30605 0 0 1 0.2084-0.0819zm9.0756 5.9258-0.7851 1.2019 0.2902 0.19169c0.3266 0.21604 0.5415 0.37364 0.6679 0.61213v4e-3c0.096 0.17657 0.1295 0.39157 0.095 0.59165-0.041 0.27311-0.1907 0.51615-0.4391 0.89304l-4.4429 6.7407c-0.1387 0.21008-0.2558 0.37735-0.3516 0.50605-0.096 0.12871-0.1587 0.21149-0.2587 0.29025a0.30585 0.30605 0 0 1-0.02 9e-3c-0.2143 0.14907-0.4875 0.21247-0.7424 0.16377-0.2844-0.0544-0.5734-0.22304-0.9991-0.50419l-0.054-0.041-0.7944 1.2056 10.257 6.7686 4.2327-3.2057-0.9135-1.1852c-0.6227 0.44957-1.2665 0.82636-1.9554 1.0289-0.7772 0.22939-1.5393 0.28276-2.2699 0.14696a0.30585 0.30605 0 0 0 0-2e-3 0.30585 0.30605 0 0 0 0-2e-3c-0.7272-0.14235-1.4883-0.48138-2.2865-1.0084l-1.0363-0.68468c-0.2943-0.19421-0.4781-0.31409-0.6066-0.50047a0.30585 0.30605 0 0 0 0-2e-3 0.30585 0.30605 0 0 0 0-2e-3c-0.092-0.13563-0.1439-0.31289-0.1153-0.48376 0.021-0.13038 0.06-0.2005 0.119-0.30884s0.1397-0.23389 0.2419-0.38884l1.8736-2.841a0.30585 0.30605 0 0 1 0.4204-0.0837l0.5582 0.36651c0.5181 0.3421 0.8347 0.56822 1.0121 0.82422 0.153 0.22008 0.2072 0.49003 0.1768 0.76654-0.031 0.31521-0.1848 0.63552-0.4354 1.0158l-0.1842 0.27535 1.0661 0.70514 3.1145-4.7202-1.0661-0.70512-0.1432 0.21396c-0.2938 0.44558-0.5063 0.73234-0.774 0.89304a0.30585 0.30605 0 0 0 0 7e-3c-0.2292 0.13227-0.5065 0.16586-0.7759 0.11715-0.3046-0.0607-0.6359-0.24951-1.1144-0.56559l-0.6233-0.40933a0.30585 0.30605 0 0 1-0.082-0.42607l2.0373-3.0847a0.30585 0.30605 0 0 1 0.4223-0.0893l1.8847 1.2466c0.6039 0.39879 1.0961 0.81968 1.4717 1.267 0.4 0.46297 0.6509 1.041 0.7609 1.7135 0.102 0.5905 0.061 1.2708-0.045 1.9889l1.4512 0.3535 1.0437-4.3388zm264.34 9e-3 -9.8254 6.6179 0.8038 1.1926 0.2902-0.20092c0.3258-0.21965 0.5535-0.35713 0.8242-0.3814 0.2037-0.0246 0.4128 0.029 0.5861 0.13962 0.2353 0.14192 0.4035 0.37281 0.6549 0.74607l4.5118 6.6979c0.1405 0.2087 0.2458 0.38082 0.3274 0.5191 0.081 0.13815 0.1385 0.22689 0.1731 0.34978a0.30585 0.30605 0 0 0 0 4e-3 0.30585 0.30605 0 0 0 0 4e-3 0.30585 0.30605 0 0 0 0 7e-3 0.30585 0.30605 0 0 0 0 4e-3c0.057 0.25563 0 0.52919-0.1358 0.74607-0.159 0.24207-0.429 0.44414-0.8521 0.72931l-0.054 0.0371 0.8075 1.1944 10.186-6.869-1.3358-5.1425-1.442 0.38883c0.1754 0.74765 0.282 1.4852 0.2048 2.1992-0.087 0.80605-0.3343 1.5301-0.7405 2.1526a0.30585 0.30605 0 0 0 0 4e-3c-0.411 0.61705-1.019 1.1827-1.8121 1.7173l-1.0289 0.69768c-0.2927 0.19693-0.4744 0.31671-0.6958 0.36467a0.30585 0.30605 0 0 0 0 7e-3c-0.1591 0.0307-0.337 0.0126-0.4838-0.0781-0.1122-0.0691-0.16-0.13751-0.2381-0.23443-0.077-0.0968-0.1664-0.21816-0.2698-0.3721l-1.8977-2.8224a0.30585 0.30605 0 0 1 0.082-0.42235l0.5526-0.3721c0.5148-0.34699 0.8396-0.55383 1.1442-0.61955 0.262-0.0565 0.5407-5.3e-4 0.7833 0.13584 0.2787 0.14886 0.5127 0.41346 0.7665 0.7907l0.1842 0.27536 1.0643-0.71815-3.1629-4.6867-1.0605 0.71258 0.1433 0.21397c0.2978 0.44277 0.4835 0.75325 0.5284 1.0623a0.30585 0.30605 0 0 0 0 4e-3 0.30585 0.30605 0 0 0 0 4e-3c0.035 0.26265-0.039 0.52529-0.188 0.75538a0.30585 0.30605 0 0 0 0 4e-3 0.30585 0.30605 0 0 0 0 4e-3c-0.1733 0.2581-0.4753 0.49243-0.9508 0.81305l-0.6195 0.41304a0.30585 0.30605 0 0 1-0.4223-0.0856l-2.0652-3.0624a0.30585 0.30605 0 0 1 0.082-0.42793l1.8773-1.2633c0.5988-0.40377 1.1724-0.6977 1.7284-0.87259 0.5821-0.19274 1.213-0.20156 1.8772-0.0447 0.5827 0.1327 1.1916 0.43929 1.8122 0.81118l0.8838-1.2056zm-250.08 9.0087-0.5824 1.3898 0.2251 0.0912 0.2754 0.0968a0.30585 0.30605 0 0 0 0 7e-3c0.2277 0.0926 0.4177 0.22586 0.5768 0.38885 0.1672 0.14339 0.2585 0.37824 0.2381 0.59537 0 0.22796-0.075 0.45998-0.2009 0.77026l-3.1387 7.7249c-0.084 0.21051-0.1575 0.37971-0.2214 0.50979-0.063 0.12996-0.1011 0.21026-0.201 0.31072a0.30585 0.30605 0 0 0 0 4e-3 0.30585 0.30605 0 0 0 0 7e-3c-0.1672 0.15328-0.3835 0.24779-0.6102 0.26978-0.2575 0.0189-0.5151-0.0586-0.8559-0.19715l-0.3237-0.13395-0.5414 1.3321 6.1416 2.5006 0.5377-1.3359-0.3442-0.13962c-0.3639-0.14801-0.6063-0.25795-0.7796-0.45583a0.30585 0.30605 0 0 1 0-0.0105c-0.1284-0.16229-0.199-0.36805-0.199-0.57489a0.30585 0.30605 0 0 0 0-2e-3 0.30585 0.30605 0 0 0 0-2e-3c9e-4 -0.27928 0.118-0.56634 0.3144-1.0494l1.1107-2.7368a0.30585 0.30605 0 0 1 0.3982-0.17111l1.1423 0.467a0.30585 0.30605 0 0 1 0.1805 0.21022l1.9666 7.5575 3.9703 1.6112 0.5415-1.3284-0.307-0.12828c-0.2855-0.11589-0.5097-0.23259-0.681-0.3721-0.159-0.13017-0.3-0.28781-0.4223-0.4763a0.30585 0.30605 0 0 1 0-9e-3c-0.1263-0.20596-0.2296-0.46614-0.3275-0.77956a0.30585 0.30605 0 0 0 0-2e-3 0.30585 0.30605 0 0 0 0-2e-3l-0.058-0.18979-1.4828-4.428a0.30585 0.30605 0 0 1 0.3442-0.39815c1.0491 0.20723 2.0402 0.14381 2.9917-0.18056 0.9348-0.31945 1.5704-0.93136 1.9665-1.907 0.2508-0.60079 0.3246-1.1795 0.2512-1.7545-0.073-0.57882-0.2849-1.1168-0.6474-1.628-0.3566-0.50891-0.8182-0.93395-1.3936-1.2763-0.5916-0.35321-1.1528-0.63772-1.68-0.85211zm234.69 0.82793c-0.077-9.5e-4 -0.1609 6.1e-4 -0.2382 4e-3 -0.313 0.0126-0.6273 0.0626-0.9507 0.14318-0.6689 0.16566-1.2663 0.35976-1.7917 0.57861l-8.1491 3.3917 0.5768 1.3898 0.2251-0.0987 0.2623-0.11904a0.30585 0.30605 0 0 1 0.022-4e-3c0.2294-0.0957 0.462-0.14466 0.6922-0.13962 0.2145-9e-3 0.4266 0.0955 0.5693 0.25117 0.1632 0.16397 0.2751 0.38205 0.4056 0.69582l3.2001 7.7007c0.088 0.20974 0.1582 0.38042 0.2047 0.51722 0.047 0.13668 0.078 0.21619 0.078 0.35722a0.30585 0.30605 0 0 0 0 4e-3 0.30585 0.30605 0 0 0 0 4e-3 0.30585 0.30605 0 0 0 0 9e-3 0.30585 0.30605 0 0 0 0 4e-3c-0.021 0.22698-0.095 0.44055-0.2419 0.61584a0.30585 0.30605 0 0 0 0 4e-3 0.30585 0.30605 0 0 0 0 4e-3c-0.1693 0.19526-0.4141 0.32191-0.7535 0.46329l-0.32 0.13584 0.5488 1.3284 6.123-2.5452-0.5544-1.334-0.3442 0.14318c-0.3623 0.15096-0.6108 0.24125-0.8726 0.22327a0.30585 0.30605 0 0 1-0.021 0c-0.2018-0.0277-0.391-0.12766-0.5358-0.27164a0.30585 0.30605 0 0 0 0-2e-3 0.30585 0.30605 0 0 0 0-2e-3c-0.1958-0.19946-0.3212-0.48239-0.521-0.96375l-1.1349-2.7238a0.30585 0.30605 0 0 1 0.1637-0.40561l1.1386-0.47071a0.30585 0.30605 0 0 1 0.2698 0.0168l6.7165 3.989 3.9592-1.6484-0.5526-1.3284-0.3088 0.1266c-0.2838 0.11821-0.5209 0.19568-0.7405 0.21769-0.2046 0.021-0.4213 2e-3 -0.64-0.0447a0.30585 0.30605 0 0 0 0-2e-3 0.30585 0.30605 0 0 0 0-2e-3c-0.2336-0.0577-0.4842-0.16649-0.7739-0.32001l-0.1767-0.0949-4.1713-2.1042a0.30585 0.30605 0 0 1-0.037-0.52468c0.8911-0.59146 1.5558-1.3341 2.0037-2.2345 0.4394-0.88513 0.4592-1.7701 0.054-2.7424-0.2489-0.59861-0.5963-1.0667-1.053-1.4233-0.4598-0.35903-0.9943-0.58973-1.6112-0.69769h-0.021c-0.2294-0.0413-0.4631-0.0647-0.6977-0.0689zm-1.3768 2.3366c0.3826 7e-3 0.736 0.10729 1.04 0.29954 0.3523 0.21146 0.6215 0.5358 0.7907 0.94328 0.1815 0.43975 0.2296 0.89178 0.1266 1.3173v4e-3c-0.098 0.42496-0.3485 0.81455-0.7163 1.161-0.3815 0.35273-0.9718 0.67666-1.7861 1.0158l-2.0299 0.84467a0.30585 0.30605 0 0 1-0.4-0.16377l-1.4717-3.5387a0.30585 0.30605 0 0 1 0.1637-0.40187l2.2531-0.94328c0.7913-0.32954 1.3905-0.51088 1.8568-0.53211 0.056-2e-3 0.1146-7e-3 0.1693-7e-3zm-229.34 0.43909a0.30585 0.30605 0 0 1 0.1191 0.0242l2.2661 0.91536c0.7953 0.32352 1.3487 0.61638 1.6949 0.93026 0.3321 0.29797 0.5593 0.65527 0.6531 1.0549 0.104 0.40009 0.059 0.82262-0.1079 1.2335-0.1794 0.44074-0.4594 0.79207-0.8317 1.0214-0.3692 0.2339-0.8205 0.33657-1.3265 0.32372-0.5192-0.0189-1.1662-0.20155-1.9834-0.53395l-2.0372-0.82422a0.30585 0.30605 0 0 1-0.1675-0.40187l1.4419-3.5499a0.30585 0.30605 0 0 1 0.2791-0.19357zm213.61 2.9396-1.0456 0.23443-0.188 0.56189a0.30585 0.30605 0 0 1-0.3851 0.19714c-0.4743-0.15726-1.0326-0.24642-1.6801-0.26234-0.6402-0.0239-1.2678 0.0345-1.8773 0.17111-1.2632 0.28331-2.3505 0.85172-3.2931 1.7191-0.9368 0.85871-1.5852 1.8855-1.9479 3.0959-0.3548 1.2067-0.3805 2.4854-0.073 3.8587 0.3107 1.3871 0.8929 2.556 1.7451 3.5294 0.8609 0.97329 1.8677 1.6473 3.0439 2.0298 1.1768 0.38281 2.3886 0.43391 3.6596 0.14886 0.7248-0.16251 1.4016-0.42037 2.0242-0.77582 0.6231-0.3556 1.1993-0.81083 1.734-1.3656a0.30585 0.30605 0 0 1 0.4503 0.0168l0.6642 0.77213 1.6466-0.37025-0.9452-4.2308c-0.08-0.39637-0.1408-0.66311-0.084-0.91909 0.045-0.20849 0.1565-0.40394 0.32-0.5377a0.30585 0.30605 0 0 0 0-2e-3 0.30585 0.30605 0 0 0 0-2e-3c0.1999-0.15558 0.4535-0.22551 0.8168-0.30697l0.2325-0.0539-0.32-1.427-6.4579 1.4475 0.3126 1.427 0.5247-0.11905c0.3896-0.0875 0.6471-0.13269 0.9042-0.0689 0.2046 0.0485 0.3933 0.16397 0.534 0.32375a0.30585 0.30605 0 0 0 0 4e-3 0.30585 0.30605 0 0 0 0 4e-3 0.30585 0.30605 0 0 0 0 7e-3c0.1693 0.20617 0.2016 0.42409 0.2865 0.80375l0.1227 0.52466a0.30585 0.30605 0 0 0 0 4e-3c0.102 0.46075 0.1037 0.87882-0.037 1.2391-0.1427 0.36961-0.4457 0.69119-0.8763 1.0121-0.4311 0.32437-0.9225 0.55325-1.4587 0.67351-0.7611 0.17069-1.5213 0.1098-2.2512-0.18057-0.7417-0.30184-1.3995-0.8604-1.9777-1.6484-0.5762-0.79671-0.9916-1.7863-1.254-2.9582-0.2386-1.0686-0.2799-2.0354-0.099-2.8894 0.1772-0.85002 0.5251-1.565 1.0493-2.1173a0.30585 0.30605 0 0 0 0-2e-3 0.30585 0.30605 0 0 0 0-2e-3c0.5254-0.54755 1.1577-0.90601 1.8717-1.0661 0.5087-0.1142 1.0518-0.11294 1.6186 0 0.5758 0.11149 1.1079 0.32643 1.5982 0.64375v-4e-3c0.4653 0.29515 1.1189 0.89709 1.8978 1.68l1.3228-0.78329zm-125.23 23.833-0.1192 1.4363 0.4019 0.0242c0.3627 0.0258 0.6164 0.0613 0.8354 0.20849 0.1835 0.11212 0.3182 0.29422 0.3814 0.50049v7e-3c0.08 0.25187 0.07 0.54158 0.037 1.0047l-0.5823 8.1305c-0.033 0.44593-0.067 0.73792-0.1954 0.97678a0.30585 0.30605 0 0 0 0 4e-3 0.30585 0.30605 0 0 0 0 4e-3c-0.108 0.18979-0.2784 0.33586-0.4837 0.41117-0.2567 0.094-0.5521 0.0806-1.0047 0.0483l-0.2009-0.0168-0.1023 1.4345 6.5937 0.47628 0.1023-1.4344-0.4465-0.0333c-0.3321-0.0237-0.5776-0.0655-0.787-0.18413a0.30585 0.30605 0 0 0 0-2e-3 0.30585 0.30605 0 0 0 0-2e-3c-0.1733-0.10371-0.3076-0.26353-0.3851-0.45211v-4e-3c-0.1041-0.2391-0.071-0.44871-0.048-0.80746l0.1915-2.7647a0.30585 0.30605 0 0 1 0.3275-0.28653l2.521 0.18414c1.658 0.11861 2.9441-0.2024 3.9015-0.93399a0.30585 0.30605 0 0 0 0-2e-3 0.30585 0.30605 0 0 0 0-2e-3 0.30585 0.30605 0 0 0 0-2e-3c0.9768-0.74002 1.4849-1.6678 1.5685-2.854 0.043-0.58771-0.042-1.1406-0.2419-1.6763-0.1997-0.54273-0.4998-1.0134-0.9135-1.427a0.30585 0.30605 0 0 0 0-2e-3 0.30585 0.30605 0 0 0 0-2e-3c-0.4039-0.40983-0.9057-0.73253-1.5127-0.96375-0.5935-0.23502-1.3749-0.39026-2.3423-0.45955zm45.707 0.12282c-0.2719-2e-3 -0.552 7e-3 -0.8372 0.0298-2.3184 0.16649-4.0979 0.98619-5.416 2.4652-1.3118 1.4789-1.889 3.275-1.734 5.4606v7e-3c0.1693 2.3508 1.0993 4.1282 2.815 5.4048 1.4137 1.0539 3.1596 1.5053 5.2857 1.3526 1.6136-0.11591 2.9477-0.51805 4.0169-1.1982 1.0808-0.69093 1.8933-1.607 2.4503-2.7722 0.5546-1.1624 0.7831-2.4674 0.6791-3.9276-0.1572-2.1737-0.971-3.8585-2.4671-5.1295-1.3013-1.111-2.8849-1.6754-4.789-1.6894zm-28.369 1.1126v1.4958h0.2363l0.2958-9e-3c0.2483 7.4e-4 0.4819 0.046 0.6921 0.13962 0.2018 0.0741 0.3547 0.25409 0.4261 0.45397 0.088 0.21442 0.1078 0.45759 0.1078 0.79631l-0.026 8.3444c0 0.22714-0.021 0.41039-0.021 0.55442 0 0.14424 0 0.23129-0.058 0.36096a0.30585 0.30605 0 0 0 0 4e-3 0.30585 0.30605 0 0 0 0 4e-3 0.30585 0.30605 0 0 0 0 4e-3 0.30585 0.30605 0 0 0 0 7e-3c-0.098 0.2045-0.2651 0.36918-0.467 0.47443-0.2314 0.11485-0.5048 0.1369-0.8726 0.13584h-0.3479v1.4401l6.6291 0.0209v-1.44h-0.3759c-0.392-9.6e-4 -0.6513-0.0147-0.8856-0.13017a0.30585 0.30605 0 0 1-0.021-9e-3c-0.1754-0.10372-0.317-0.26102-0.3944-0.45025a0.30585 0.30605 0 0 1 0-9e-3c-0.1041-0.25636-0.1024-0.56565-0.1024-1.0866v-2.9564a0.30585 0.30605 0 0 1 0.3088-0.307l1.2317 4e-3a0.30585 0.30605 0 0 1 0.2419 0.12828l4.6475 6.2774 4.2904 0.0126v-1.44h-0.3367c-0.3077-9.5e-4 -0.5537-0.0242-0.7647-0.0893-0.1977-0.0609-0.3894-0.15914-0.5749-0.28837a0.30585 0.30605 0 0 0 0-2e-3 0.30585 0.30605 0 0 0 0-2e-3c-0.1937-0.14361-0.386-0.3452-0.5935-0.59908a0.30585 0.30605 0 0 0 0-2e-3 0.30585 0.30605 0 0 0 0-2e-3l-0.1228-0.1562-3.0364-3.5555a0.30585 0.30605 0 0 1 0.175-0.49489c1.0504-0.20008 1.9477-0.62711 2.7089-1.2838 0.751-0.64588 1.1108-1.4534 1.1108-2.5061 0-0.64838-0.1385-1.2172-0.4224-1.7228-0.285-0.50912-0.6802-0.92849-1.2074-1.267-0.5208-0.33866-1.1097-0.55812-1.7713-0.66048-0.6808-0.10645-1.308-0.16208-1.8772-0.16377zm27.967 0.64844c0.6313 4e-3 1.2414 0.17951 1.8065 0.5135 0.6594 0.38947 1.1892 1.0016 1.5982 1.8159 0.4208 0.82204 0.6679 1.8322 0.7535 3.0345 0.1223 1.7153-0.1796 3.1561-0.9377 4.2773-0.6508 0.95-1.6186 1.4889-2.8038 1.574-1.1785 0.0846-2.1999-0.30993-2.9861-1.1554-0.905-0.98206-1.4108-2.3546-1.5331-4.0764-0.1244-1.7252 0.2075-3.2044 1.0084-4.389 0.6491-0.95578 1.6161-1.499 2.8112-1.587h0.01c0.091-7e-3 0.1853-9e-3 0.2754-9e-3zm-40.323 0.28652 1.6392 0.11905c0.802 0.0575 1.4302 0.25893 1.8698 0.64745 0.556 0.48832 0.829 1.1609 0.774 1.9163-0.037 0.5015-0.1939 0.95205-0.4763 1.3191-0.2757 0.35197-0.6314 0.61334-1.0531 0.76839-0.4461 0.15578-1.0442 0.1833-1.8345 0.12661l-1.2595-0.0856a0.30585 0.30605 0 0 1-0.2828-0.32931l0.2995-4.1992a0.30585 0.30605 0 0 1 0.3237-0.28279zm17.502 0.90234 2.4298 9e-3c0.8588 2e-3 1.4799 0.0596 1.9182 0.22142 0.4208 0.15264 0.763 0.39934 0.9991 0.73675 0.2461 0.33227 0.3659 0.73806 0.3647 1.1814 0 0.47634-0.1328 0.91109-0.3926 1.2633-0.255 0.3551-0.6325 0.61896-1.107 0.79632-0.4883 0.17762-1.1534 0.24843-2.0354 0.24557l-2.201-9e-3a0.30585 0.30605 0 0 1-0.307-0.30326l0.024-3.8383a0.30585 0.30605 0 0 1 0.307-0.30328z" fill-opacity=".2" filter="url(#filter23037-53)" stop-color="#000000" style="-inkscape-stroke:none;font-variation-settings:normal"/><path d="m511.01 528.27-4.5769 0.45212-0.1674 1.094 0.5284 0.41116a0.30585 0.30605 0 0 1 0.045 0.4428c-0.7759 0.87851-1.2526 1.9088-1.4381 3.1238-0.1551 1.01-0.099 1.9534 0.16 2.8373v7e-3c0.262 0.87946 0.6663 1.5535 1.2094 2.0447 0.5439 0.48945 1.1633 0.78074 1.8847 0.89119 0.5046 0.0773 0.9923 0.0511 1.4828-0.0856 0.4905-0.13942 0.8998-0.34062 1.2298-0.5991 0.3316-0.26617 0.6949-0.68404 1.0736-1.2521 0.3798-0.58635 0.6491-1.0502 0.8-1.3805l1.0884-2.3387c0.4583-0.99957 0.8643-1.6924 1.28-2.1117a0.30585 0.30605 0 0 0 0-2e-3 0.30585 0.30605 0 0 0 0-2e-3c0.4115-0.40798 0.9152-0.61132 1.4326-0.53211 0.3217 0.0493 0.6214 0.21535 0.8689 0.46329 0.2607 0.26036 0.4296 0.61336 0.5172 1.0251v4e-3c0.087 0.414 0.084 0.89463 0 1.4438-0.1894 1.2358-0.7748 2.3196-1.7377 3.2224-0.8908 0.82245-1.9553 1.3361-3.1145 1.6522l0.1321 1.5554 5.2932-0.15263 0.1693-1.1145-0.8074-0.51722a0.30585 0.30605 0 0 1-0.065-0.46326c0.5607-0.61759 0.982-1.221 1.2689-1.8084 0.2805-0.59102 0.4828-1.2611 0.5991-2.0131 0.2469-1.6153-0.023-3.0042-0.7666-4.2159-0.6816-1.0804-1.5801-1.6844-2.7666-1.8661-0.927-0.14193-1.7597 0.0342-2.5526 0.5414-0.7695 0.50329-1.5079 1.4732-2.1805 2.9359a0.30585 0.30605 0 0 0 0 9e-3l-1.2485 2.681v4e-3c-0.3653 0.80828-0.7159 1.3674-1.1311 1.6894-0.3887 0.30688-0.8355 0.4611-1.2708 0.39442-0.4157-0.0636-0.7444-0.37395-0.9637-0.80746a0.30585 0.30605 0 0 0 0-2e-3 0.30585 0.30605 0 0 0 0-2e-3 0.30585 0.30605 0 0 0 0-2e-3c-0.2284-0.46161-0.2745-1.02-0.175-1.6633 0.1511-0.99042 0.591-1.8879 1.2986-2.6698 0.6565-0.73324 1.632-1.2952 2.7983-1.7638zm-340.97 11.068c-0.2595 4e-3 -0.52 0.0363-0.7852 0.0987h-0.022c-0.4968 0.11736-0.9433 0.32935-1.347 0.64003-0.4024 0.31306-0.7006 0.65258-0.9098 1.0158v7e-3c-0.2064 0.37-0.386 0.88905-0.5246 1.5535v4e-3c-0.1305 0.68369-0.1965 1.2174-0.2177 1.5796a0.30585 0.30605 0 0 0 0 4e-3l-0.1358 2.5712c-0.051 1.0986-0.1675 1.9001-0.3963 2.4447-0.2288 0.53246-0.6219 0.90844-1.1312 1.0289-0.3169 0.075-0.6526 0.0311-0.9749-0.10603-0.3395-0.14424-0.6287-0.40543-0.8652-0.75538-0.2394-0.34976-0.413-0.79696-0.5414-1.3377-0.2873-1.2167-0.1492-2.4431 0.4056-3.641a0.30585 0.30605 0 0 0 0-2e-3 0.30585 0.30605 0 0 0 0-2e-3c0.5179-1.0957 1.3142-1.9668 2.2698-2.694l-0.7032-1.3935-4.8486 2.1228 0.2587 1.0996 0.9414 0.17678a0.30585 0.30605 0 0 1 0.2307 0.40561c-0.2885 0.78265-0.4499 1.5004-0.4968 2.1526-0.039 0.65321 0.026 1.351 0.201 2.0912 0.3753 1.5891 1.1319 2.7759 2.2828 3.6168 1.0363 0.74639 2.0972 0.97016 3.2652 0.69398 0.9128-0.21579 1.6184-0.68915 2.1638-1.4568 0.5254-0.75502 0.8474-1.9341 0.9228-3.5424l0.1507-2.9601c0.037-0.88935 0.1573-1.5432 0.4224-1.9982 0.2454-0.43019 0.5964-0.73399 1.0251-0.83536 0.4092-0.0968 0.8345 0.0653 1.2001 0.38512 0.3841 0.34254 0.6381 0.84584 0.787 1.4791 0.2287 0.97378 0.1583 1.9731-0.2047 2.962v4e-3c-0.3343 0.92592-1.0289 1.8151-1.9349 2.6866l0.7628 1.3694 4.0727-2.1377-0.2531-1.0698-0.6437-0.18413a0.30585 0.30605 0 0 1-0.2084-0.39815c0.3911-1.1054 0.4502-2.2439 0.1675-3.4401-0.2353-0.9957-0.6375-1.848-1.2094-2.5712-0.5725-0.71912-1.2036-1.1915-1.8921-1.4438-0.3392-0.12283-0.6801-0.19694-1.0214-0.21769h-0.013c-0.082-4e-3 -0.1655-7e-3 -0.2474-4e-3zm334 3.9815-1.533 5.2857 1.3805 0.40187 0.1191-0.39813c0.102-0.34737 0.1889-0.58395 0.3777-0.76655 0.1551-0.15788 0.3618-0.24025 0.5898-0.26605 0.1345-0.0168 0.2473-2e-3 0.3981 0.0279 0.153 0.0309 0.3372 0.0795 0.5601 0.14508l5.0773 1.4884a0.30585 0.30605 0 0 1-0.037 0.59908l-9.3305 1.7005-1.5536 5.3099 1.3787 0.40187 0.1376-0.47071c0.086-0.29105 0.1733-0.51072 0.3442-0.67723 0.149-0.15138 0.3462-0.24206 0.5619-0.27351 0.2471-0.0391 0.5125 9e-3 0.8447 0.10603l8.1546 2.3908c0.3108 0.0912 0.5517 0.20302 0.7331 0.37769 0.159 0.1541 0.2723 0.35089 0.307 0.56559a0.30585 0.30605 0 0 0 0 4e-3 0.30585 0.30605 0 0 0 0 4e-3c0.033 0.24107-0.026 0.48931-0.1303 0.84467l-0.091 0.31629 1.3768 0.40559 1.5535-5.3174-1.3768-0.40187-0.1097 0.38512c-0.102 0.34657-0.2052 0.59931-0.3777 0.78702a0.30585 0.30605 0 0 0 0 4e-3c-0.1427 0.14844-0.3265 0.25705-0.5284 0.28837a0.30585 0.30605 0 0 1-0.021 0c-0.2596 0.0275-0.5111-0.0502-0.9433-0.17678l-7.3267-2.1489a0.30585 0.30605 0 0 1 0.034-0.59165l11.833-2.1805 0.7182-2.4522-10.704-3.1331c-0.4408-0.12891-0.7119-0.21585-0.9191-0.38514-0.1672-0.13647-0.2806-0.33196-0.3274-0.54513a0.30585 0.30605 0 0 1 0-9e-3c-0.051-0.25813 0-0.52766 0.1023-0.8763l0.1117-0.36652zm-327.14 10.895-1.3507 0.53026 0.1265 0.32373c0.1448 0.36557 0.2313 0.61995 0.1972 0.88932v4e-3c-0.021 0.20072-0.112 0.39054-0.2549 0.53396-0.1897 0.20114-0.452 0.31776-0.8726 0.48373l-7.5072 2.9601c-0.234 0.0924-0.4257 0.16397-0.5786 0.21394-0.1529 0.0502-0.2494 0.0825-0.3758 0.0893a0.30585 0.30605 0 0 1-0.022 7e-3c-0.2598-9.6e-4 -0.5127-0.11086-0.6921-0.29583-0.2019-0.20722-0.3466-0.51562-0.5321-0.98794l-0.03-0.0651-1.3395 0.53211 4.508 11.429 5.3099-0.1898-0.061-1.4959c-0.7686 0.0105-1.5145-0.045-2.1954-0.27536-0.7664-0.25889-1.4194-0.65488-1.9387-1.1851-0.5134-0.53454-0.9403-1.2552-1.2912-2.1452l-0.4577-1.1554c-0.1305-0.32814-0.2113-0.53251-0.2102-0.75909a0.30585 0.30605 0 0 1 0-9e-3c0-0.16292 0.064-0.33189 0.1842-0.45583 0.092-0.0947 0.1659-0.12954 0.2753-0.18413 0.1102-0.0544 0.2528-0.11254 0.4261-0.18056l3.1592-1.2465a0.30585 0.30605 0 0 1 0.3981 0.17111l0.2456 0.61956c0.2279 0.57773 0.3584 0.94431 0.3572 1.2559-9e-4 0.26648-0.117 0.5184-0.2995 0.7256-0.2052 0.24218-0.5145 0.4146-0.9396 0.58235l-0.3107 0.12283 0.467 1.1889 5.2615-2.0745-0.4707-1.1889-0.2381 0.093c-0.4963 0.19589-0.8362 0.30523-1.148 0.28278-0.2636-0.0231-0.5079-0.14968-0.6995-0.34419a0.30585 0.30605 0 0 0 0-2e-3 0.30585 0.30605 0 0 0 0-2e-3c-0.2145-0.22476-0.3757-0.56946-0.5861-1.1033l-0.2716-0.69211a0.30585 0.30605 0 0 1 0.173-0.39816l3.4383-1.3582a0.30585 0.30605 0 0 1 0.3963 0.17679l0.8279 2.1043c0.265 0.67343 0.429 1.2991 0.48 1.881 0.061 0.60769-0.065 1.2292-0.3609 1.8419v4e-3c-0.2555 0.54054-0.6827 1.0648-1.1796 1.5908l0.9823 1.12 3.3453-2.9434zm321.11 7.8403-5.0978 10.691 1.2986 0.61584 0.1433-0.3163c0.1693-0.35271 0.2995-0.58743 0.5173-0.74608 0.1632-0.12597 0.3706-0.1879 0.5767-0.18055 0.2749 2e-3 0.5337 0.11526 0.9396 0.30886l7.2858 3.4717c0.2271 0.10834 0.4119 0.20156 0.5526 0.27909 0.1405 0.0774 0.2282 0.12849 0.32 0.21768a0.30585 0.30605 0 0 1 0.021 9e-3c0.1815 0.19127 0.2828 0.45461 0.2624 0.71631-0.021 0.2887-0.1414 0.59937-0.361 1.0586l-0.028 0.0614 1.2987 0.61955 5.2783-11.102-3.7545-3.7508-1.0438 1.0661c0.5307 0.55437 0.9898 1.1413 1.2856 1.7954v9e-3c0.3336 0.73722 0.4922 1.4838 0.4596 2.2252-0.041 0.74048-0.2733 1.5438-0.6847 2.4075l-0.5321 1.12c-0.1511 0.31856-0.2477 0.51747-0.4149 0.67164a0.30585 0.30605 0 0 0 0 7e-3c-0.1223 0.10729-0.2864 0.18372-0.4577 0.18057-0.1305-2e-3 -0.2077-0.0399-0.3237-0.0837-0.1163-0.0441-0.2552-0.0989-0.4224-0.17867l-3.0661-1.4642a0.30585 0.30605 0 0 1-0.1433-0.41117l0.2865-0.60283c0.2668-0.56068 0.4392-0.90292 0.6679-1.1144 0.1977-0.18204 0.4639-0.27296 0.7424-0.2791 0.315-0.0126 0.6509 0.0951 1.0605 0.29025l0.2995 0.14508 0.5489-1.1572-5.1016-2.4317-0.5488 1.1517 0.2288 0.11527c0.4812 0.2296 0.796 0.40111 0.9917 0.64374 0.1712 0.20995 0.2511 0.48516 0.2307 0.7628-0.021 0.31023-0.1643 0.65968-0.4112 1.1777l-0.3144 0.67537a0.30585 0.30605 0 0 1-0.4093 0.14508l-3.336-1.5926a0.30585 0.30605 0 0 1-0.1433-0.40933l0.9749-2.0428c0.3106-0.65248 0.6591-1.1944 1.0494-1.628 0.4031-0.46212 0.9408-0.79633 1.5926-0.99911v4e-3c0.569-0.18203 1.2492-0.22588 1.9721-0.22139l0.1396-1.4922zm-314.84 7.9407-1.2131 0.7777 0.2716 0.42234a0.30585 0.30605 0 0 0 0 7e-3c0.1591 0.25304 0.2641 0.46835 0.2866 0.69956a0.30585 0.30605 0 0 0 0 7e-3 0.30585 0.30605 0 0 0 0 4e-3c0.021 0.21611-0.06 0.43413-0.1842 0.61584-0.1387 0.20723-0.3367 0.33906-0.668 0.55258l-6.9788 4.4987c-0.3415 0.22014-0.5964 0.35959-0.8614 0.39444-0.2173 0.0319-0.4448-0.0168-0.6344-0.12828a0.30585 0.30605 0 0 0 0-2e-3 0.30585 0.30605 0 0 0 0-2e-3c-0.22-0.13668-0.3772-0.35445-0.5898-0.68466l-0.1526-0.24561-1.2131 0.7833 2.9508 4.5843 1.2094-0.77582-0.2214-0.3442c-0.1754-0.27219-0.2902-0.49312-0.3331-0.71817a0.30585 0.30605 0 0 1 0-0.0168c-0.024-0.19442 0-0.39146 0.071-0.56934a0.30585 0.30605 0 0 1 0-0.0126c0.092-0.19589 0.2559-0.34416 0.4577-0.47444l7.5686-4.8764a0.30585 0.30605 0 0 1 0.3944 0.45582l-7.9462 9.2003 0.8651 1.3414 12.052-3.5462a0.30585 0.30605 0 0 1 0.2494 0.54886l-7.6542 4.9378c-0.3136 0.20176-0.5508 0.32787-0.8112 0.35165-0.2112 0.0229-0.4234-0.034-0.6028-0.15074-0.2214-0.14404-0.3887-0.37259-0.6159-0.72561l-0.1339-0.21024-1.2056 0.77955 3.5238 5.483 1.2093-0.77956-0.2902-0.45025c-0.1551-0.24159-0.2512-0.48261-0.2716-0.72745v-4e-3c-0.021-0.20155 0.04-0.4009 0.1525-0.57302 0.069-0.10834 0.1435-0.16692 0.2456-0.24745 0.102-0.0804 0.2298-0.16691 0.3889-0.26977l7.0737-4.5564c0.4146-0.26712 0.763-0.42552 1.1219-0.36465 0.3545 0.0609 0.6303 0.32744 0.8688 0.69767l0.2289 0.36096 1.213-0.77956-3.401-5.2858-8.8059 2.575a0.30585 0.30605 0 0 1-0.3144-0.49675l6.0356-6.8728zm307.52 6.203-3.708 5.483 1.1889 0.80749 0.1991-0.29398c0.1101-0.16482 0.2079-0.29589 0.2995-0.40188 0.09-0.10456 0.1689-0.18875 0.2921-0.25117 0.1998-0.10224 0.4298-0.13101 0.6475-0.0819 0.2714 0.0497 0.5214 0.20849 0.9098 0.47072l6.8225 4.6104c0.3342 0.22597 0.5483 0.38663 0.6829 0.61025 0.1101 0.17468 0.1607 0.38657 0.1321 0.59165a0.30585 0.30605 0 0 0 0 4e-3 0.30585 0.30605 0 0 0 0 4e-3 0.30585 0.30605 0 0 0 0 4e-3c-0.047 0.25958-0.1932 0.4831-0.4335 0.84094l-0.1563 0.23445 1.1889 0.80372 3.6987-5.4792-1.1926-0.80375-0.2698 0.39814c-0.1793 0.26527-0.3564 0.45926-0.5823 0.57492-0.1754 0.10161-0.3883 0.13394-0.5861 0.0893-0.2507-0.0569-0.4805-0.20723-0.8595-0.46327l-6.7947-4.588c-0.3519-0.23777-0.5772-0.40892-0.72-0.61955a0.30585 0.30605 0 0 0 0-2e-3 0.30585 0.30605 0 0 0 0-2e-3c-0.1183-0.18161-0.1806-0.39648-0.1563-0.60841 0.026-0.27153 0.1695-0.49843 0.3926-0.82793l0.1972-0.29396zm-5.7899 11.249c-0.5568 0.0105-1.1047 0.10645-1.6391 0.2791-1.0557 0.34117-2.1911 1.129-3.3899 2.3777l-5.1667 5.3769 1.0363 0.99911 0.1396-0.14696c0.3184-0.33171 0.5293-0.5343 0.8037-0.62699 0.1997-0.0773 0.4235-0.0832 0.6233-9e-3 0.2687 0.0874 0.4695 0.27595 0.8018 0.59537l5.8365 5.6132c0.3352 0.32281 0.5415 0.52154 0.6475 0.76655a0.30585 0.30605 0 0 0 0 7e-3 0.30585 0.30605 0 0 0 0 4e-3 0.30585 0.30605 0 0 1 0 2e-3 0.30585 0.30605 0 0 1 0 2e-3 0.30585 0.30605 0 0 1 0 2e-3 0.30585 0.30605 0 0 1 0 2e-3 0.30585 0.30605 0 0 1 0 2e-3 0.30585 0.30605 0 0 1 0 2e-3 0.30585 0.30605 0 0 1 0 2e-3c0.081 0.22394 0.104 0.45766 0.041 0.67536-0.08 0.27581-0.2753 0.4931-0.586 0.81679l-0.1395 0.14696 1.04 0.99725 4.5211-4.7164c0.3926-0.409 0.876-1.0252 1.4344-1.8401 0.5597-0.81435 0.9245-1.495 1.0977-2.015 0.236-0.70893 0.3338-1.5 0.2828-2.3815-0.057-0.88315-0.2728-1.7088-0.6474-2.4819-0.3684-0.77516-0.9236-1.522-1.6726-2.2419-1.0772-1.0351-2.1943-1.6925-3.3564-1.9889-0.5829-0.15095-1.1488-0.2246-1.7042-0.21396zm-289.61 0.20827-1.0159 1.0214 0.2866 0.28653c0.2581 0.25674 0.4274 0.44569 0.4967 0.70141 0.063 0.20346 0.039 0.42634-0.047 0.62328v7e-3c-0.104 0.24304-0.3032 0.4574-0.6307 0.78699l-5.7453 5.7806c-0.315 0.31714-0.5241 0.51491-0.7777 0.61212-0.205 0.0739-0.439 0.0682-0.6437-9e-3 -0.2561-0.0964-0.469-0.2902-0.7907-0.61026l-0.1303-0.13962-1.0177 1.0214 4.6885 4.6625 1.0159-1.0214-0.32-0.3163c-0.2361-0.23445-0.3929-0.42837-0.4745-0.65488-0.067-0.19505-0.067-0.41126 0-0.60841 0.039-0.12156 0.094-0.20491 0.1712-0.30326 0.08-0.10077 0.1853-0.21228 0.3125-0.34048l1.9499-1.9684a0.30585 0.30605 0 0 1 0.4353 0l1.7936 1.7843c1.1788 1.1725 2.3585 1.771 3.561 1.8419 1.2223 0.0764 2.2154-0.29694 3.0531-1.1405 0.4152-0.41792 0.7158-0.89099 0.9136-1.427 0.2043-0.54096 0.2867-1.0985 0.2418-1.6819-0.039-0.57427-0.2102-1.1459-0.5191-1.7173-0.2966-0.56572-0.7873-1.2024-1.4754-1.8866zm288.33 2.5917c0.096-9.6e-4 0.1951 4e-3 0.294 0.0126l0.01-4e-3c0.3958 0.0288 0.8163 0.12535 1.254 0.27349 0.8869 0.29079 1.7309 0.82622 2.5322 1.5963 0.8135 0.78182 1.382 1.6192 1.6931 2.5136a0.30585 0.30605 0 0 0 0 4e-3c0.3017 0.88183 0.3567 1.727 0.1433 2.5173-0.2161 0.78896-0.7483 1.6049-1.574 2.4652-0.296 0.30753-0.4722 0.48663-0.6679 0.59536a0.30585 0.30605 0 0 1-0.021 0.0105c-0.1672 0.0753-0.3661 0.0869-0.5414 0.0371-0.1245-0.0384-0.1828-0.0945-0.2698-0.16376-0.087-0.0693-0.1861-0.15431-0.3033-0.26605l-6.6383-6.3853a0.30585 0.30605 0 0 1-0.022-0.43351l1.1349-1.1814c0.743-0.77406 1.4511-1.2711 2.1526-1.4717 0.2615-0.0748 0.5338-0.11632 0.8224-0.11905zm-286.19 2.2308a0.30585 0.30605 0 0 1 0.2084 0.0819l1.1684 1.161c0.5704 0.56728 0.9195 1.1322 0.9991 1.7136 0.104 0.7342-0.1333 1.4192-0.668 1.9572-0.3541 0.35663-0.7639 0.59404-1.2167 0.6884-0.4384 0.087-0.8781 0.0518-1.2987-0.10603a0.30585 0.30605 0 0 0 0-2e-3 0.30585 0.30605 0 0 0 0-2e-3 0.30585 0.30605 0 0 0 0-2e-3c-0.4394-0.17322-0.9098-0.54261-1.4717-1.1014l-0.8967-0.88561a0.30585 0.30605 0 0 1 0-0.43536l2.9675-2.9862a0.30585 0.30605 0 0 1 0.2084-0.0819zm9.0756 5.9258-0.7851 1.2019 0.2902 0.19169c0.3266 0.21604 0.5415 0.37364 0.6679 0.61213v4e-3c0.096 0.17657 0.1295 0.39157 0.095 0.59165-0.041 0.27311-0.1907 0.51615-0.4391 0.89304l-4.4429 6.7407c-0.1387 0.21008-0.2558 0.37735-0.3516 0.50605-0.096 0.12871-0.1587 0.21149-0.2587 0.29025a0.30585 0.30605 0 0 1-0.02 9e-3c-0.2143 0.14907-0.4875 0.21247-0.7424 0.16377-0.2844-0.0544-0.5734-0.22304-0.9991-0.50419l-0.054-0.041-0.7944 1.2056 10.257 6.7686 4.2327-3.2057-0.9135-1.1852c-0.6227 0.44957-1.2665 0.82636-1.9554 1.0289-0.7772 0.22939-1.5393 0.28276-2.2699 0.14696a0.30585 0.30605 0 0 0 0-2e-3 0.30585 0.30605 0 0 0 0-2e-3c-0.7272-0.14235-1.4883-0.48138-2.2865-1.0084l-1.0363-0.68468c-0.2943-0.19421-0.4781-0.31409-0.6066-0.50047a0.30585 0.30605 0 0 0 0-2e-3 0.30585 0.30605 0 0 0 0-2e-3c-0.092-0.13563-0.1439-0.31289-0.1153-0.48376 0.021-0.13038 0.06-0.2005 0.119-0.30884s0.1397-0.23389 0.2419-0.38884l1.8736-2.841a0.30585 0.30605 0 0 1 0.4204-0.0837l0.5582 0.36651c0.5181 0.3421 0.8347 0.56822 1.0121 0.82422 0.153 0.22008 0.2072 0.49003 0.1768 0.76654-0.031 0.31521-0.1848 0.63552-0.4354 1.0158l-0.1842 0.27535 1.0661 0.70514 3.1145-4.7202-1.0661-0.70512-0.1432 0.21396c-0.2938 0.44558-0.5063 0.73234-0.774 0.89304a0.30585 0.30605 0 0 0 0 7e-3c-0.2292 0.13227-0.5065 0.16586-0.7759 0.11715-0.3046-0.0607-0.6359-0.24951-1.1144-0.56559l-0.6233-0.40933a0.30585 0.30605 0 0 1-0.082-0.42607l2.0373-3.0847a0.30585 0.30605 0 0 1 0.4223-0.0893l1.8847 1.2466c0.6039 0.39879 1.0961 0.81968 1.4717 1.267 0.4 0.46297 0.6509 1.041 0.7609 1.7135 0.102 0.5905 0.061 1.2708-0.045 1.9889l1.4512 0.3535 1.0437-4.3388zm264.34 9e-3 -9.8254 6.6179 0.8038 1.1926 0.2902-0.20092c0.3258-0.21965 0.5535-0.35713 0.8242-0.3814 0.2037-0.0246 0.4128 0.029 0.5861 0.13962 0.2353 0.14192 0.4035 0.37281 0.6549 0.74607l4.5118 6.6979c0.1405 0.2087 0.2458 0.38082 0.3274 0.5191 0.081 0.13815 0.1385 0.22689 0.1731 0.34978a0.30585 0.30605 0 0 0 0 4e-3 0.30585 0.30605 0 0 0 0 4e-3 0.30585 0.30605 0 0 0 0 7e-3 0.30585 0.30605 0 0 0 0 4e-3c0.057 0.25563 0 0.52919-0.1358 0.74607-0.159 0.24207-0.429 0.44414-0.8521 0.72931l-0.054 0.0371 0.8075 1.1944 10.186-6.869-1.3358-5.1425-1.442 0.38883c0.1754 0.74765 0.282 1.4852 0.2048 2.1992-0.087 0.80605-0.3343 1.5301-0.7405 2.1526a0.30585 0.30605 0 0 0 0 4e-3c-0.411 0.61705-1.019 1.1827-1.8121 1.7173l-1.0289 0.69768c-0.2927 0.19693-0.4744 0.31671-0.6958 0.36467a0.30585 0.30605 0 0 0 0 7e-3c-0.1591 0.0307-0.337 0.0126-0.4838-0.0781-0.1122-0.0691-0.16-0.13751-0.2381-0.23443-0.077-0.0968-0.1664-0.21816-0.2698-0.3721l-1.8977-2.8224a0.30585 0.30605 0 0 1 0.082-0.42235l0.5526-0.3721c0.5148-0.34699 0.8396-0.55383 1.1442-0.61955 0.262-0.0565 0.5407-5.3e-4 0.7833 0.13584 0.2787 0.14886 0.5127 0.41346 0.7665 0.7907l0.1842 0.27536 1.0643-0.71815-3.1629-4.6867-1.0605 0.71258 0.1433 0.21397c0.2978 0.44277 0.4835 0.75325 0.5284 1.0623a0.30585 0.30605 0 0 0 0 4e-3 0.30585 0.30605 0 0 0 0 4e-3c0.035 0.26265-0.039 0.52529-0.188 0.75538a0.30585 0.30605 0 0 0 0 4e-3 0.30585 0.30605 0 0 0 0 4e-3c-0.1733 0.2581-0.4753 0.49243-0.9508 0.81305l-0.6195 0.41304a0.30585 0.30605 0 0 1-0.4223-0.0856l-2.0652-3.0624a0.30585 0.30605 0 0 1 0.082-0.42793l1.8773-1.2633c0.5988-0.40377 1.1724-0.6977 1.7284-0.87259 0.5821-0.19274 1.213-0.20156 1.8772-0.0447 0.5827 0.1327 1.1916 0.43929 1.8122 0.81118l0.8838-1.2056zm-250.08 9.0087-0.5824 1.3898 0.2251 0.0912 0.2754 0.0968a0.30585 0.30605 0 0 0 0 7e-3c0.2277 0.0926 0.4177 0.22586 0.5768 0.38885 0.1672 0.14339 0.2585 0.37824 0.2381 0.59537 0 0.22796-0.075 0.45998-0.2009 0.77026l-3.1387 7.7249c-0.084 0.21051-0.1575 0.37971-0.2214 0.50979-0.063 0.12996-0.1011 0.21026-0.201 0.31072a0.30585 0.30605 0 0 0 0 4e-3 0.30585 0.30605 0 0 0 0 7e-3c-0.1672 0.15328-0.3835 0.24779-0.6102 0.26978-0.2575 0.0189-0.5151-0.0586-0.8559-0.19715l-0.3237-0.13395-0.5414 1.3321 6.1416 2.5006 0.5377-1.3359-0.3442-0.13962c-0.3639-0.14801-0.6063-0.25795-0.7796-0.45583a0.30585 0.30605 0 0 1 0-0.0105c-0.1284-0.16229-0.199-0.36805-0.199-0.57489a0.30585 0.30605 0 0 0 0-2e-3 0.30585 0.30605 0 0 0 0-2e-3c9e-4 -0.27928 0.118-0.56634 0.3144-1.0494l1.1107-2.7368a0.30585 0.30605 0 0 1 0.3982-0.17111l1.1423 0.467a0.30585 0.30605 0 0 1 0.1805 0.21022l1.9666 7.5575 3.9703 1.6112 0.5415-1.3284-0.307-0.12828c-0.2855-0.11589-0.5097-0.23259-0.681-0.3721-0.159-0.13017-0.3-0.28781-0.4223-0.4763a0.30585 0.30605 0 0 1 0-9e-3c-0.1263-0.20596-0.2296-0.46614-0.3275-0.77956a0.30585 0.30605 0 0 0 0-2e-3 0.30585 0.30605 0 0 0 0-2e-3l-0.058-0.18979-1.4828-4.428a0.30585 0.30605 0 0 1 0.3442-0.39815c1.0491 0.20723 2.0402 0.14381 2.9917-0.18056 0.9348-0.31945 1.5704-0.93136 1.9665-1.907 0.2508-0.60079 0.3246-1.1795 0.2512-1.7545-0.073-0.57882-0.2849-1.1168-0.6474-1.628-0.3566-0.50891-0.8182-0.93395-1.3936-1.2763-0.5916-0.35321-1.1528-0.63772-1.68-0.85211zm234.69 0.82793c-0.077-9.5e-4 -0.1609 6.1e-4 -0.2382 4e-3 -0.313 0.0126-0.6273 0.0626-0.9507 0.14318-0.6689 0.16566-1.2663 0.35976-1.7917 0.57861l-8.1491 3.3917 0.5768 1.3898 0.2251-0.0987 0.2623-0.11904a0.30585 0.30605 0 0 1 0.022-4e-3c0.2294-0.0957 0.462-0.14466 0.6922-0.13962 0.2145-9e-3 0.4266 0.0955 0.5693 0.25117 0.1632 0.16397 0.2751 0.38205 0.4056 0.69582l3.2001 7.7007c0.088 0.20974 0.1582 0.38042 0.2047 0.51722 0.047 0.13668 0.078 0.21619 0.078 0.35722a0.30585 0.30605 0 0 0 0 4e-3 0.30585 0.30605 0 0 0 0 4e-3 0.30585 0.30605 0 0 0 0 9e-3 0.30585 0.30605 0 0 0 0 4e-3c-0.021 0.22698-0.095 0.44055-0.2419 0.61584a0.30585 0.30605 0 0 0 0 4e-3 0.30585 0.30605 0 0 0 0 4e-3c-0.1693 0.19526-0.4141 0.32191-0.7535 0.46329l-0.32 0.13584 0.5488 1.3284 6.123-2.5452-0.5544-1.334-0.3442 0.14318c-0.3623 0.15096-0.6108 0.24125-0.8726 0.22327a0.30585 0.30605 0 0 1-0.021 0c-0.2018-0.0277-0.391-0.12766-0.5358-0.27164a0.30585 0.30605 0 0 0 0-2e-3 0.30585 0.30605 0 0 0 0-2e-3c-0.1958-0.19946-0.3212-0.48239-0.521-0.96375l-1.1349-2.7238a0.30585 0.30605 0 0 1 0.1637-0.40561l1.1386-0.47071a0.30585 0.30605 0 0 1 0.2698 0.0168l6.7165 3.989 3.9592-1.6484-0.5526-1.3284-0.3088 0.1266c-0.2838 0.11821-0.5209 0.19568-0.7405 0.21769-0.2046 0.021-0.4213 2e-3 -0.64-0.0447a0.30585 0.30605 0 0 0 0-2e-3 0.30585 0.30605 0 0 0 0-2e-3c-0.2336-0.0577-0.4842-0.16649-0.7739-0.32001l-0.1767-0.0949-4.1713-2.1042a0.30585 0.30605 0 0 1-0.037-0.52468c0.8911-0.59146 1.5558-1.3341 2.0037-2.2345 0.4394-0.88513 0.4592-1.7701 0.054-2.7424-0.2489-0.59861-0.5963-1.0667-1.053-1.4233-0.4598-0.35903-0.9943-0.58973-1.6112-0.69769h-0.021c-0.2294-0.0413-0.4631-0.0647-0.6977-0.0689zm-1.3768 2.3366c0.3826 7e-3 0.736 0.10729 1.04 0.29954 0.3523 0.21146 0.6215 0.5358 0.7907 0.94328 0.1815 0.43975 0.2296 0.89178 0.1266 1.3173v4e-3c-0.098 0.42496-0.3485 0.81455-0.7163 1.161-0.3815 0.35273-0.9718 0.67666-1.7861 1.0158l-2.0299 0.84467a0.30585 0.30605 0 0 1-0.4-0.16377l-1.4717-3.5387a0.30585 0.30605 0 0 1 0.1637-0.40187l2.2531-0.94328c0.7913-0.32954 1.3905-0.51088 1.8568-0.53211 0.056-2e-3 0.1146-7e-3 0.1693-7e-3zm-229.34 0.43909a0.30585 0.30605 0 0 1 0.1191 0.0242l2.2661 0.91536c0.7953 0.32352 1.3487 0.61638 1.6949 0.93026 0.3321 0.29797 0.5593 0.65527 0.6531 1.0549 0.104 0.40009 0.059 0.82262-0.1079 1.2335-0.1794 0.44074-0.4594 0.79207-0.8317 1.0214-0.3692 0.2339-0.8205 0.33657-1.3265 0.32372-0.5192-0.0189-1.1662-0.20155-1.9834-0.53395l-2.0372-0.82422a0.30585 0.30605 0 0 1-0.1675-0.40187l1.4419-3.5499a0.30585 0.30605 0 0 1 0.2791-0.19357zm213.61 2.9396-1.0456 0.23443-0.188 0.56189a0.30585 0.30605 0 0 1-0.3851 0.19714c-0.4743-0.15726-1.0326-0.24642-1.6801-0.26234-0.6402-0.0239-1.2678 0.0345-1.8773 0.17111-1.2632 0.28331-2.3505 0.85172-3.2931 1.7191-0.9368 0.85871-1.5852 1.8855-1.9479 3.0959-0.3548 1.2067-0.3805 2.4854-0.073 3.8587 0.3107 1.3871 0.8929 2.556 1.7451 3.5294 0.8609 0.97329 1.8677 1.6473 3.0439 2.0298 1.1768 0.38281 2.3886 0.43391 3.6596 0.14886 0.7248-0.16251 1.4016-0.42037 2.0242-0.77582 0.6231-0.3556 1.1993-0.81083 1.734-1.3656a0.30585 0.30605 0 0 1 0.4503 0.0168l0.6642 0.77213 1.6466-0.37025-0.9452-4.2308c-0.08-0.39637-0.1408-0.66311-0.084-0.91909 0.045-0.20849 0.1565-0.40394 0.32-0.5377a0.30585 0.30605 0 0 0 0-2e-3 0.30585 0.30605 0 0 0 0-2e-3c0.1999-0.15558 0.4535-0.22551 0.8168-0.30697l0.2325-0.0539-0.32-1.427-6.4579 1.4475 0.3126 1.427 0.5247-0.11905c0.3896-0.0875 0.6471-0.13269 0.9042-0.0689 0.2046 0.0485 0.3933 0.16397 0.534 0.32375a0.30585 0.30605 0 0 0 0 4e-3 0.30585 0.30605 0 0 0 0 4e-3 0.30585 0.30605 0 0 0 0 7e-3c0.1693 0.20617 0.2016 0.42409 0.2865 0.80375l0.1227 0.52466a0.30585 0.30605 0 0 0 0 4e-3c0.102 0.46075 0.1037 0.87882-0.037 1.2391-0.1427 0.36961-0.4457 0.69119-0.8763 1.0121-0.4311 0.32437-0.9225 0.55325-1.4587 0.67351-0.7611 0.17069-1.5213 0.1098-2.2512-0.18057-0.7417-0.30184-1.3995-0.8604-1.9777-1.6484-0.5762-0.79671-0.9916-1.7863-1.254-2.9582-0.2386-1.0686-0.2799-2.0354-0.099-2.8894 0.1772-0.85002 0.5251-1.565 1.0493-2.1173a0.30585 0.30605 0 0 0 0-2e-3 0.30585 0.30605 0 0 0 0-2e-3c0.5254-0.54755 1.1577-0.90601 1.8717-1.0661 0.5087-0.1142 1.0518-0.11294 1.6186 0 0.5758 0.11149 1.1079 0.32643 1.5982 0.64375v-4e-3c0.4653 0.29515 1.1189 0.89709 1.8978 1.68l1.3228-0.78329zm-125.23 23.833-0.1192 1.4363 0.4019 0.0242c0.3627 0.0258 0.6164 0.0613 0.8354 0.20849 0.1835 0.11212 0.3182 0.29422 0.3814 0.50049v7e-3c0.08 0.25187 0.07 0.54158 0.037 1.0047l-0.5823 8.1305c-0.033 0.44593-0.067 0.73792-0.1954 0.97678a0.30585 0.30605 0 0 0 0 4e-3 0.30585 0.30605 0 0 0 0 4e-3c-0.108 0.18979-0.2784 0.33586-0.4837 0.41117-0.2567 0.094-0.5521 0.0806-1.0047 0.0483l-0.2009-0.0168-0.1023 1.4345 6.5937 0.47628 0.1023-1.4344-0.4465-0.0333c-0.3321-0.0237-0.5776-0.0655-0.787-0.18413a0.30585 0.30605 0 0 0 0-2e-3 0.30585 0.30605 0 0 0 0-2e-3c-0.1733-0.10371-0.3076-0.26353-0.3851-0.45211v-4e-3c-0.1041-0.2391-0.071-0.44871-0.048-0.80746l0.1915-2.7647a0.30585 0.30605 0 0 1 0.3275-0.28653l2.521 0.18414c1.658 0.11861 2.9441-0.2024 3.9015-0.93399a0.30585 0.30605 0 0 0 0-2e-3 0.30585 0.30605 0 0 0 0-2e-3 0.30585 0.30605 0 0 0 0-2e-3c0.9768-0.74002 1.4849-1.6678 1.5685-2.854 0.043-0.58771-0.042-1.1406-0.2419-1.6763-0.1997-0.54273-0.4998-1.0134-0.9135-1.427a0.30585 0.30605 0 0 0 0-2e-3 0.30585 0.30605 0 0 0 0-2e-3c-0.4039-0.40983-0.9057-0.73253-1.5127-0.96375-0.5935-0.23502-1.3749-0.39026-2.3423-0.45955zm45.707 0.12282c-0.2719-2e-3 -0.552 7e-3 -0.8372 0.0298-2.3184 0.16649-4.0979 0.98619-5.416 2.4652-1.3118 1.4789-1.889 3.275-1.734 5.4606v7e-3c0.1693 2.3508 1.0993 4.1282 2.815 5.4048 1.4137 1.0539 3.1596 1.5053 5.2857 1.3526 1.6136-0.11591 2.9477-0.51805 4.0169-1.1982 1.0808-0.69093 1.8933-1.607 2.4503-2.7722 0.5546-1.1624 0.7831-2.4674 0.6791-3.9276-0.1572-2.1737-0.971-3.8585-2.4671-5.1295-1.3013-1.111-2.8849-1.6754-4.789-1.6894zm-28.369 1.1126v1.4958h0.2363l0.2958-9e-3c0.2483 7.4e-4 0.4819 0.046 0.6921 0.13962 0.2018 0.0741 0.3547 0.25409 0.4261 0.45397 0.088 0.21442 0.1078 0.45759 0.1078 0.79631l-0.026 8.3444c0 0.22714-0.021 0.41039-0.021 0.55442 0 0.14424 0 0.23129-0.058 0.36096a0.30585 0.30605 0 0 0 0 4e-3 0.30585 0.30605 0 0 0 0 4e-3 0.30585 0.30605 0 0 0 0 4e-3 0.30585 0.30605 0 0 0 0 7e-3c-0.098 0.2045-0.2651 0.36918-0.467 0.47443-0.2314 0.11485-0.5048 0.1369-0.8726 0.13584h-0.3479v1.4401l6.6291 0.0209v-1.44h-0.3759c-0.392-9.6e-4 -0.6513-0.0147-0.8856-0.13017a0.30585 0.30605 0 0 1-0.021-9e-3c-0.1754-0.10372-0.317-0.26102-0.3944-0.45025a0.30585 0.30605 0 0 1 0-9e-3c-0.1041-0.25636-0.1024-0.56565-0.1024-1.0866v-2.9564a0.30585 0.30605 0 0 1 0.3088-0.307l1.2317 4e-3a0.30585 0.30605 0 0 1 0.2419 0.12828l4.6475 6.2774 4.2904 0.0126v-1.44h-0.3367c-0.3077-9.5e-4 -0.5537-0.0242-0.7647-0.0893-0.1977-0.0609-0.3894-0.15914-0.5749-0.28837a0.30585 0.30605 0 0 0 0-2e-3 0.30585 0.30605 0 0 0 0-2e-3c-0.1937-0.14361-0.386-0.3452-0.5935-0.59908a0.30585 0.30605 0 0 0 0-2e-3 0.30585 0.30605 0 0 0 0-2e-3l-0.1228-0.1562-3.0364-3.5555a0.30585 0.30605 0 0 1 0.175-0.49489c1.0504-0.20008 1.9477-0.62711 2.7089-1.2838 0.751-0.64588 1.1108-1.4534 1.1108-2.5061 0-0.64838-0.1385-1.2172-0.4224-1.7228-0.285-0.50912-0.6802-0.92849-1.2074-1.267-0.5208-0.33866-1.1097-0.55812-1.7713-0.66048-0.6808-0.10645-1.308-0.16208-1.8772-0.16377zm27.967 0.64844c0.6313 4e-3 1.2414 0.17951 1.8065 0.5135 0.6594 0.38947 1.1892 1.0016 1.5982 1.8159 0.4208 0.82204 0.6679 1.8322 0.7535 3.0345 0.1223 1.7153-0.1796 3.1561-0.9377 4.2773-0.6508 0.95-1.6186 1.4889-2.8038 1.574-1.1785 0.0846-2.1999-0.30993-2.9861-1.1554-0.905-0.98206-1.4108-2.3546-1.5331-4.0764-0.1244-1.7252 0.2075-3.2044 1.0084-4.389 0.6491-0.95578 1.6161-1.499 2.8112-1.587h0.01c0.091-7e-3 0.1853-9e-3 0.2754-9e-3zm-40.323 0.28652 1.6392 0.11905c0.802 0.0575 1.4302 0.25893 1.8698 0.64745 0.556 0.48832 0.829 1.1609 0.774 1.9163-0.037 0.5015-0.1939 0.95205-0.4763 1.3191-0.2757 0.35197-0.6314 0.61334-1.0531 0.76839-0.4461 0.15578-1.0442 0.1833-1.8345 0.12661l-1.2595-0.0856a0.30585 0.30605 0 0 1-0.2828-0.32931l0.2995-4.1992a0.30585 0.30605 0 0 1 0.3237-0.28279zm17.502 0.90234 2.4298 9e-3c0.8588 2e-3 1.4799 0.0596 1.9182 0.22142 0.4208 0.15264 0.763 0.39934 0.9991 0.73675 0.2461 0.33227 0.3659 0.73806 0.3647 1.1814 0 0.47634-0.1328 0.91109-0.3926 1.2633-0.255 0.3551-0.6325 0.61896-1.107 0.79632-0.4883 0.17762-1.1534 0.24843-2.0354 0.24557l-2.201-9e-3a0.30585 0.30605 0 0 1-0.307-0.30326l0.024-3.8383a0.30585 0.30605 0 0 1 0.307-0.30328z" fill="#1a66bc" stroke-linejoin="round" stroke-width=".95258"/><path d="m434.6 638.46c-9.2151 1.5367-19.308 2.3146-30.36 2.1998l30.446 7.3914z" fill-opacity=".2" stop-color="#000000" stroke-linejoin="round" stroke-width=".38104" style="-inkscape-stroke:none;font-variation-settings:normal"/><path d="m501.17 504.8-8.6288 18.253 7.2319 1.1247c1.0689-8.173 1.2819-15.036 1.3969-19.378z" fill-opacity=".2" stop-color="#000000" stroke-linejoin="round" stroke-width=".38104" style="-inkscape-stroke:none;font-variation-settings:normal"/><path d="m243.01 638.46-0.085 9.5912 30.445-7.3914c-11.052 0.11463-21.145-0.66315-30.36-2.1998z" fill-opacity=".2" stroke-linejoin="round" stroke-width=".38104"/><path d="m402.06 619.63 2.1879 21.089-5.4792-20.246c1.1402-0.27367 2.2206-0.55741 3.2913-0.84279z" fill-opacity=".2" style="-inkscape-stroke:none;font-variation-settings:normal"/><path d="m275.56 619.57-2.188 21.089 5.4792-20.246c-1.1402-0.27367-2.2205-0.55741-3.2912-0.84279z" fill-opacity=".2" style="-inkscape-stroke:none;font-variation-settings:normal"/><path d="m176.44 504.8c0.115 4.3418 0.328 11.205 1.3969 19.378l7.2319-1.1247z" fill-opacity=".2" stop-color="#000000" stroke-linejoin="round" stroke-width=".38104" style="-inkscape-stroke:none;font-variation-settings:normal"/><path d="m160.51 501.36c-0.086 0.74216-0.2113 1.5508-0.2815 2.2655l16.21 1.1723z" fill-opacity=".2" stop-color="#000000" style="-inkscape-stroke:none;font-variation-settings:normal"/><path d="m517.1 501.36c0.086 0.74216 0.2112 1.5508 0.2815 2.2655l-16.21 1.1723z" fill-opacity=".2" stop-color="#000000" style="-inkscape-stroke:none;font-variation-settings:normal"/></g></g></svg>
