<?xml version="1.0" encoding="UTF-8" standalone="no"?>
<svg xmlns="http://www.w3.org/2000/svg" width="907mm" height="907mm" viewBox="0 0 907 907">
  <path d="m640.9321 906-374.8636-.00005L1.0002 640.9317 1 266.06836 266.0688.99978l374.8634-.0001 265.06795 265.06865.0001 374.86331z"/>
  <path fill="#fff" d="M3.5 639.89638V267.10399L267.1037 3.50018l372.7923-.0002L903.50005 267.1043l.00012 372.79213L639.896 903.49992 267.1038 903.5Z"/>
  <path fill="#e4002b" d="m623.3282 863.49965-339.656.00034L43.5 623.328l.0003-339.65617L283.6722 43.49958l339.6559.0003L863.50015 283.672l.00005 339.65559z"/>
  <path fill="#fff" d="M129.13085 508.55418c-3.1997 22.9688 12.8365 44.1848 35.8165 47.3871 22.9662 3.1834 44.1848-12.8366 47.3845-35.8191 2.4668-17.7163-6.5494-35.0288-22.4726-43.1777l-52.9516-26.4565c-27.3094-13.95-43.690199-42.8605-41.608199-73.481 2.8526-42.2546 39.442199-74.1968 81.696699-71.3279 42.2682 2.8688 74.2113 39.4422 71.3425 81.6967h-45.2871c2.8663-17.2474-8.7943-33.5571-26.0554-36.426-17.2465-2.8534-33.5553 8.8106-36.4242 26.0554-2.2474 13.5549 4.4949 26.994 16.6963 33.3103l52.8839 26.4274c31.0739 15.7842 49.7433 48.5973 47.4256 83.3793-3.198 47.963-44.6682 84.2484-92.6304 81.0513-47.9631-3.2006-84.248399-44.6682-81.051299-92.6193zm142.9242-158.41917h54.4897v251.00832h44.2413V350.13501h54.4761v-44.24129h-153.2071zm335.0934 31.90301c0-42.28191-34.2698-76.55172-76.5647-76.53802-42.2682 0-76.538 34.26981-76.538 76.55172v142.91366c0 42.26562 34.299 76.53462 76.5646 76.53462 42.2957 0 76.5673-34.269 76.5381-76.56462zm103.5726 96.38076v122.4101h-45.0256v-295.3161h81.0641c42.26832 0 76.54022 34.2719 76.54022 76.5427v19.8231c0 42.2708-34.2719 76.5428-76.54022 76.5428h-36.0385z"/>
  <path fill="#e4002b" d="M562.12725 382.03802c0-17.39803-14.1188-31.51517-31.5418-31.51517-17.398 0-31.5117 14.11884-31.5117 31.51517v142.92736c0 17.39544 14.1189 31.51177 31.5117 31.51177 17.3982 0 31.5144-14.11883 31.5144-31.52807zm148.5938-31.50394v82.8565h36.0385c17.3991 0 31.5146-14.1171 31.5146-31.5137v-19.824c0-17.3991-14.1172-31.5162-31.5146-31.5162h-36.4808.4457z"/>
</svg>